<svg id="Layer_1" data-name="Layer 1" xmlns="http://www.w3.org/2000/svg" xmlns:xlink="http://www.w3.org/1999/xlink" viewBox="0 0 224 224"><defs><style>.cls-1{fill:none;}.cls-2{clip-path:url(#clip-path);}.cls-3{fill:rgba(255, 255, 255, 0.04);}.cls-4{fill:rgba(255, 255, 255, 0.04);}.cls-5{fill:rgba(255, 255, 255, 0.04);}.cls-6{fill:rgba(255, 255, 255, 0.04);}.cls-7{fill:rgba(255, 255, 255, 0.04);}</style><clipPath id="clip-path"><rect class="cls-1" x="-631.9" y="-496" width="1383.3" height="343.5"/></clipPath></defs><title>EGATIN-Website Elements-Hero</title><g class="cls-2"><path class="cls-3" d="M270.3-656.8a26.9,26.9,0,0,0-37.9,0L-103.6-322a200.5,200.5,0,0,0-121.1-40.6c-110.7,0-200.8,89.8-200.8,200.1A198.5,198.5,0,0,0-384.7-41.8L-728.1,300.3a26.7,26.7,0,0,0,0,37.7,26.4,26.4,0,0,0,18.9,7.9,26.6,26.6,0,0,0,19-7.9L-347-4A200.4,200.4,0,0,0-224.7,37.6C-114,37.6-23.9-52.2-23.9-162.5A198.7,198.7,0,0,0-65.6-284.4L270.3-619.1A26.5,26.5,0,0,0,270.3-656.8ZM-77.4-162.5c0,80.9-66.1,146.7-147.3,146.7a147.4,147.4,0,0,1-84-26.3l54-53.9a26.5,26.5,0,0,0,0-37.7,26.8,26.8,0,0,0-37.8,0L-346.4-80a145.9,145.9,0,0,1-25.5-82.5c0-80.9,66.1-146.7,147.2-146.7a147.1,147.1,0,0,1,82.8,25.4l-61.2,61a26.6,26.6,0,0,0,0,37.8,26.6,26.6,0,0,0,18.9,7.8,26.7,26.7,0,0,0,18.9-7.8l61.4-61.2A144.9,144.9,0,0,1-77.4-162.5Z"/><path class="cls-4" d="M193.7,244.1a8,8,0,0,1-5.6-2.3,7.9,7.9,0,0,1,0-11.2L316.8,102.4a7.8,7.8,0,0,1,11.1,0,7.9,7.9,0,0,1,0,11.2L199.3,241.8A8.2,8.2,0,0,1,193.7,244.1Z"/></g><path class="cls-5" d="M112.9,155.3a44,44,0,1,1,44-44A44,44,0,0,1,112.9,155.3Zm0-76.2a32.2,32.2,0,1,0,32.2,32.2A32.2,32.2,0,0,0,112.9,79.1Z"/><path class="cls-6" d="M6.9,223a6.3,6.3,0,0,1-4.2-1.7,6,6,0,0,1,0-8.3l95.4-95.4a5.9,5.9,0,0,1,8.3,8.3L11,221.3A5.8,5.8,0,0,1,6.9,223Z"/><path class="cls-7" d="M121.8,108.1a6.3,6.3,0,0,1-4.2-1.7,6,6,0,0,1,0-8.3L213,2.7a6,6,0,0,1,8.3,0,6,6,0,0,1,0,8.3l-95.4,95.4A5.8,5.8,0,0,1,121.8,108.1Z"/></svg>