<svg id="Layer_1" data-name="Layer 1" xmlns="http://www.w3.org/2000/svg" xmlns:xlink="http://www.w3.org/1999/xlink" viewBox="0 0 224 224"><defs><style>.cls-1{fill:none;}.cls-2{clip-path:url(#clip-path);}.cls-3{fill:#5f5f5f;}.cls-4{fill:#5f5f5f;}.cls-5{fill:#5f5f5f;}</style><clipPath id="clip-path"><rect class="cls-1" x="-1238.4" y="-481" width="1383.3" height="343.5"/></clipPath></defs><title>EGATIN-Website Elements-Hero</title><path class="cls-3" d="M112.9,155.3a44,44,0,1,1,44-44A44,44,0,0,1,112.9,155.3Zm0-76.2a32.2,32.2,0,1,0,32.2,32.2A32.2,32.2,0,0,0,112.9,79.1Z"/><path class="cls-4" d="M6.9,223a6.3,6.3,0,0,1-4.2-1.7,6,6,0,0,1,0-8.3l95.4-95.4a5.9,5.9,0,0,1,8.3,8.3L11,221.3A5.8,5.8,0,0,1,6.9,223Z"/><path class="cls-5" d="M121.8,108.1a6.3,6.3,0,0,1-4.2-1.7,6,6,0,0,1,0-8.3L213,2.7a6,6,0,0,1,8.3,0,6,6,0,0,1,0,8.3l-95.4,95.4A5.8,5.8,0,0,1,121.8,108.1Z"/></svg>