<svg id="Layer_1" data-name="Layer 1" xmlns="http://www.w3.org/2000/svg" viewBox="0 0 1429.2 394.1"><defs><style>.cls-1{fill:#0c3d54;}.cls-2{fill:#104a60;}</style></defs><title>NEW-NEW - EGATIN-Website Elements-PageTitle-BG</title><rect class="cls-1" width="1429.2" height="394.1"/><path class="cls-2" d="M1217,300.9c62.1,0,112.6-50.3,112.6-112.2a111.5,111.5,0,0,0-23.4-68.4L1427,0h-42.4l-99.7,99.3A112.4,112.4,0,0,0,1217,76.5c-62.1,0-112.6,50.3-112.6,112.2a111.8,111.8,0,0,0,22.8,67.7L990.1,393.1h42.4l115.9-115.5A112.8,112.8,0,0,0,1217,300.9Zm0-194.5a82.5,82.5,0,0,1,46.4,14.3l-34.3,34.2a14.9,14.9,0,0,0-.1,21.1h.1a15,15,0,0,0,21.2,0l34.5-34.4a82.4,82.4,0,0,1,14.8,47c0,45.4-37.1,82.3-82.6,82.3a82.7,82.7,0,0,1-47.1-14.8l30.3-30.2a15,15,0,1,0-20.6-21.8,4.6,4.6,0,0,0-.7.7L1148.7,235a82.2,82.2,0,0,1-14.3-46.3C1134.4,143.3,1171.5,106.4,1217,106.4Z" transform="translate(0.2 0.2)"/><polygon class="cls-2" points="1333.9 393.1 1372.6 393.1 1428.4 336.7 1428.4 298.1 1333.9 393.1"/><path class="cls-2" d="M148.8,271.7c56.6,0,102.7-45.9,102.7-102.3a101.6,101.6,0,0,0-21.3-62.3L337.6,0H298.9L210.8,87.9a102.6,102.6,0,0,0-62-20.8C92.2,67.1,46.2,113,46.2,169.4A101.8,101.8,0,0,0,67,231.1L0,297.8v38.6l86.3-85.9A102.3,102.3,0,0,0,148.8,271.7Zm0-177.3a75.4,75.4,0,0,1,42.4,13l-31.4,31.2a13.7,13.7,0,0,0,19.4,19.3l31.4-31.3a74.4,74.4,0,0,1,13.5,42.8c0,41.4-33.8,75-75.3,75A75.6,75.6,0,0,1,105.9,231l27.6-27.6a13.7,13.7,0,0,0-18.4-20.3l-1,1L86.6,211.6a74.6,74.6,0,0,1-13.1-42.2C73.5,128,107.3,94.4,148.8,94.4Z" transform="translate(0.2 0.2)"/><path class="cls-2" d="M773.8,353.4c39.9,0,72.4-32.3,72.4-72.1a71.9,71.9,0,0,0-15-43.9l88.1-87.9A72.6,72.6,0,0,0,963,164.2c39.9,0,72.4-32.3,72.4-72.1a71.9,71.9,0,0,0-15-43.9L1068.7,0h-27.3l-34.7,34.6A72.5,72.5,0,0,0,963,20c-39.9,0-72.4,32.3-72.4,72.1a72,72,0,0,0,14.7,43.5l-88.2,87.9a72.5,72.5,0,0,0-43.3-14.3c-39.9,0-72.4,32.3-72.4,72.1a72,72,0,0,0,14.7,43.5l-68.5,68.3h27.3l54.8-54.7A72.3,72.3,0,0,0,773.8,353.4ZM963,39.2a53,53,0,0,1,29.9,9.2l-22.1,22a9.5,9.5,0,0,0-.2,13.4l.2.2a9.7,9.7,0,0,0,13.6,0l22.2-22.1a53,53,0,0,1-73.5,73.9l19.2-19.1a9.9,9.9,0,0,0-13.7-14.2l-19.4,19.3a51.7,51.7,0,0,1-9.3-29.7A53.2,53.2,0,0,1,963,39.2ZM773.8,228.4a52.9,52.9,0,0,1,29.4,8.9l-21.7,21.6a10,10,0,0,0-2.7,7.9,9.6,9.6,0,0,0,16.4,6.4l22.2-22.1a53,53,0,0,1-73.9,73.6L763,305.3a9.6,9.6,0,1,0-13.6-13.6L729.9,311a52.4,52.4,0,0,1-9.2-29.7,53,53,0,0,1,53.1-52.9Z" transform="translate(0.2 0.2)"/><path class="cls-2" d="M495.9,371.5c80.9,0,146.7-65.6,146.7-146.1a145.9,145.9,0,0,0-30.4-89.1L749,0H693.7L584.4,108.9a146.5,146.5,0,0,0-88.5-29.7c-80.9,0-146.7,65.6-146.7,146.2A145.4,145.4,0,0,0,379,313.5l-79.8,79.6h55.3l52.1-51.9A145.7,145.7,0,0,0,495.9,371.5Zm0-253.3a106.1,106.1,0,0,1,60.5,18.6l-44.7,44.5a19.5,19.5,0,0,0,27.6,27.6h0l44.9-44.7a106.3,106.3,0,0,1,19.3,61.2c0,59-48.3,107.1-107.6,107.1a107.5,107.5,0,0,1-61.3-19.2L474,274a19.5,19.5,0,1,0-27.6-27.6L407,285.6a106.7,106.7,0,0,1-18.6-60.2C388.4,166.3,436.6,118.2,495.9,118.2Z" transform="translate(0.2 0.2)"/></svg>