<?xml version="1.0" encoding="utf-8"?>
<svg viewBox="75.727 43.631 134.403 29.589" width="134px" height="29px" xmlns="http://www.w3.org/2F9FAFD/svg">
  <path d="M95.4 45.7404C95.2 45.5404 95.2 45.3404 95.2 45.1404V20.2404C95.2 19.9404 95.3 19.7404 95.4 19.5404C95.6 19.3404 95.8 19.3404 96 19.3404H111.6C111.9 19.3404 112.1 19.4404 112.3 19.5404C112.5 19.7404 112.5 19.9404 112.5 20.2404V21.6404C112.5 21.9404 112.4 22.1404 112.3 22.2404C112.1 22.4404 111.9 22.4404 111.6 22.4404H98.6V30.9404H110.7C111 30.9404 111.2 31.0404 111.4 31.1404C111.6 31.3404 111.6 31.5404 111.6 31.8404V33.1404C111.6 33.4404 111.5 33.6404 111.4 33.7404C111.2 33.9404 111 33.9404 110.7 33.9404H98.7V42.7404H112C112.3 42.7404 112.5 42.8404 112.7 42.9404C112.9 43.1404 112.9 43.3404 112.9 43.6404V45.0404C112.9 45.3404 112.8 45.5404 112.6 45.6404C112.4 45.8404 112.2 45.8404 112 45.8404H96C95.8 45.9404 95.6 45.8404 95.4 45.7404Z" fill="#F9FAFD" transform="matrix(1, 0, 0, 1, -18.321211, 25.630375)"/>
  <path d="M121.8 43.5404C120 41.7404 119 39.2404 118.9 36.1404C118.9 35.3404 118.9 34.1404 118.9 32.5404C118.9 30.9404 118.9 29.7404 118.9 28.9404C119 25.8404 120 23.3404 121.8 21.5404C123.6 19.7404 126.2 18.8404 129.5 18.8404C131.7 18.8404 133.6 19.2404 135.2 20.0404C136.7 20.8404 137.9 21.8404 138.7 22.9404C139.5 24.0404 139.9 25.1404 140 26.0404V26.1404C140 26.3404 139.9 26.5404 139.8 26.6404C139.6 26.7404 139.5 26.8404 139.2 26.8404H137C136.8 26.8404 136.6 26.7404 136.5 26.6404C136.4 26.5404 136.3 26.3404 136.2 26.0404C135.8 24.8404 135 23.8404 134 23.0404C132.9 22.2404 131.4 21.8404 129.6 21.8404C127.5 21.8404 125.8 22.4404 124.6 23.6404C123.4 24.8404 122.7 26.6404 122.7 29.0404C122.7 29.7404 122.7 30.9404 122.7 32.4404C122.7 33.9404 122.7 35.0404 122.7 35.8404C122.8 38.3404 123.4 40.1404 124.6 41.2404C125.8 42.4404 127.5 43.0404 129.6 43.0404C131.8 43.0404 133.5 42.4404 134.8 41.2404C136.1 40.0404 136.7 38.2404 136.7 35.9404V34.3404H130.9C130.6 34.3404 130.4 34.2404 130.3 34.0404C130.1 33.8404 130.1 33.6404 130.1 33.4404V32.3404C130.1 32.0404 130.2 31.8404 130.3 31.7404C130.5 31.5404 130.7 31.4404 130.9 31.4404H139.4C139.7 31.4404 139.9 31.5404 140.1 31.6404C140.3 31.8404 140.3 32.0404 140.3 32.3404V35.9404C140.3 38.0404 139.9 39.8404 139 41.3404C138.1 42.9404 136.9 44.1404 135.3 44.9404C133.7 45.8404 131.8 46.2404 129.6 46.2404C126.2 46.3404 123.6 45.4404 121.8 43.5404Z" fill="#F9FAFD" transform="matrix(1, 0, 0, 1, -18.321211, 25.630375)"/>
  <path d="M144.7 45.7404C144.5 45.5404 144.5 45.4404 144.5 45.2404L144.6 44.8404L154 20.2404C154.2 19.6404 154.6 19.4404 155.2 19.4404H157.6C158.2 19.4404 158.6 19.7404 158.8 20.2404L168.2 44.8404L168.3 45.2404C168.3 45.4404 168.2 45.6404 168.1 45.7404C167.9 45.9404 167.8 45.9404 167.5 45.9404H165.7C165.4 45.9404 165.2 45.8404 165.1 45.7404C164.9 45.6404 164.8 45.4404 164.8 45.3404L162.7 39.8404H150.1L148 45.3404C147.8 45.7404 147.5 45.9404 147 45.9404H145.2C145 45.9404 144.8 45.8404 144.7 45.7404ZM151.2 36.6404H161.6L156.4 22.9404L151.2 36.6404Z" fill="#F9FAFD" transform="matrix(1, 0, 0, 1, -18.321211, 25.630375)"/>
  <path d="M177.6 45.7404C177.4 45.5404 177.4 45.3404 177.4 45.1404V22.5404H170C169.7 22.5404 169.5 22.4404 169.4 22.3404C169.2 22.1404 169.2 21.9404 169.2 21.7404V20.2404C169.2 19.9404 169.3 19.7404 169.4 19.5404C169.6 19.3404 169.8 19.3404 170 19.3404H188.3C188.6 19.3404 188.8 19.4404 188.9 19.5404C189.1 19.7404 189.1 19.9404 189.1 20.2404V21.7404C189.1 22.0404 189 22.2404 188.9 22.3404C188.7 22.5404 188.5 22.5404 188.3 22.5404H181V45.0404C181 45.3404 180.9 45.5404 180.7 45.6404C180.5 45.8404 180.3 45.8404 180.1 45.8404H178.3C178 45.9404 177.8 45.8404 177.6 45.7404Z" fill="#F9FAFD" transform="matrix(1, 0, 0, 1, -18.321211, 25.630375)"/>
  <path d="M195.7 45.7404C195.5 45.5404 195.5 45.3404 195.5 45.1404V20.1404C195.5 19.8404 195.6 19.6404 195.7 19.5404C195.9 19.3404 196.1 19.3404 196.3 19.3404H198.2C198.5 19.3404 198.7 19.4404 198.8 19.5404C199 19.7404 199 19.9404 199 20.1404V45.0404C199 45.3404 198.9 45.5404 198.8 45.6404C198.6 45.8404 198.4 45.8404 198.2 45.8404H196.3C196 45.9404 195.8 45.8404 195.7 45.7404Z" fill="#F9FAFD" transform="matrix(1, 0, 0, 1, -18.321211, 25.630375)"/>
  <path d="M207.9 45.7404C207.7 45.5404 207.7 45.3404 207.7 45.1404V20.2404C207.7 19.9404 207.8 19.7404 207.9 19.5404C208.1 19.3404 208.3 19.3404 208.5 19.3404H210.2C210.5 19.3404 210.6 19.4404 210.8 19.5404C211 19.6404 211.1 19.7404 211.2 19.9404L223.9 39.5404V20.2404C223.9 19.9404 224 19.7404 224.1 19.5404C224.3 19.3404 224.5 19.3404 224.7 19.3404H226.4C226.7 19.3404 226.9 19.4404 227.1 19.5404C227.3 19.7404 227.3 19.9404 227.3 20.2404V45.0404C227.3 45.3404 227.2 45.5404 227.1 45.6404C226.9 45.8404 226.7 45.9404 226.5 45.9404H224.8C224.4 45.9404 224.1 45.7404 223.9 45.4404L211.1 25.9404V45.0404C211.1 45.3404 211 45.5404 210.9 45.6404C210.7 45.8404 210.5 45.8404 210.3 45.8404H208.5C208.2 45.9404 208 45.8404 207.9 45.7404Z" fill="#F9FAFD" transform="matrix(1, 0, 0, 1, -18.321211, 25.630375)"/>
</svg>