<?xml version="1.0" encoding="utf-8"?>
<!-- Generator: Adobe Illustrator 19.0.0, SVG Export Plug-In . SVG Version: 6.00 Build 0)  -->
<svg version="1.1" id="Layer_1" xmlns="http://www.w3.org/2000/svg" xmlns:xlink="http://www.w3.org/1999/xlink" x="0px" y="0px"
	 viewBox="12 -80 224 224" style="enable-background:new 12 -80 224 224;" xml:space="preserve">
<style type="text/css">
	.st0{fill:#e2e2ea;}
</style>
<title>EGATIN-Website Elements-Hero</title>
<path class="st0" d="M167.3,31.1c0,24.3-19.7,44-44,44s-44-19.7-44-44s19.7-44,44-44h0C147.6-12.9,167.3,6.8,167.3,31.1z M91.1,31.1
	c0,17.8,14.4,32.2,32.2,32.2s32.2-14.4,32.2-32.2S141.1-1.1,123.3-1.1h0C105.5-1.1,91.1,13.3,91.1,31.1
	C91.1,31.1,91.1,31.1,91.1,31.1z"/>
<path class="st0" d="M235,137.1c0,1.6-0.6,3.1-1.7,4.2c-2.3,2.2-6,2.2-8.3,0l-95.4-95.4c-2.1-2.5-1.7-6.2,0.9-8.3
	c2.2-1.8,5.3-1.8,7.4,0l95.4,95.4C234.4,134.1,235,135.6,235,137.1z"/>
<path class="st0" d="M120.1,22.2c0,1.6-0.6,3.1-1.7,4.2c-2.3,2.2-6,2.2-8.3,0L14.7-69c-2.2-2.3-2.2-6,0-8.3c2.3-2.2,6-2.2,8.3,0
	l95.4,95.4C119.5,19.2,120.1,20.7,120.1,22.2z"/>
</svg>
