<svg width="229" height="85" viewBox="0 0 229 85" fill="none" xmlns="http://www.w3.org/2000/svg">
<path d="M65.6 29.1404C60 29.1404 55.4 24.5404 55.4 18.9404C55.4 13.3404 60 8.6404 65.6 8.6404C71.2 8.6404 75.8 13.2404 75.8 18.8404C75.8 24.4404 71.2 29.1404 65.6 29.1404ZM65.6 11.6404C61.6 11.6404 58.3 14.9404 58.3 18.9404C58.3 22.9404 61.6 26.2404 65.6 26.2404C69.6 26.2404 72.9 22.9404 72.9 18.9404C72.9 14.9404 69.6 11.6404 65.6 11.6404Z" fill="#ffffff"/>
<path d="M42.4 20.3404C36.8 19.8404 32.6 14.9404 33.1 9.3404C33.6 3.7404 38.5 -0.459595 44.1 0.0404047C49.7 0.540405 53.9 5.44041 53.4 11.0404C52.9 16.6404 48 20.7404 42.4 20.3404ZM43.9 2.8404C39.9 2.5404 36.4 5.4404 36 9.4404C35.6 13.4404 38.6 16.9404 42.6 17.3404C46.6 17.6404 50.1 14.7404 50.5 10.7404C50.9 6.74041 47.9 3.2404 43.9 2.8404Z" fill="#ffffff"/>
<path d="M43.2 52.9404C37.6 52.9404 33 48.3404 33 42.7404C33 37.1404 37.6 32.5404 43.2 32.5404C48.8 32.5404 53.4 37.1404 53.4 42.7404C53.4 48.3404 48.9 52.9404 43.2 52.9404ZM43.2 35.4404C39.2 35.4404 35.9 38.7404 35.9 42.7404C35.9 46.7404 39.2 50.0404 43.2 50.0404C47.2 50.0404 50.5 46.7404 50.5 42.7404C50.5 38.7404 47.3 35.4404 43.2 35.4404Z" fill="#ffffff"/>
<path d="M10.2 52.9404C4.6 52.9404 0 48.3404 0 42.7404C0 37.1404 4.6 32.5404 10.2 32.5404C15.8 32.5404 20.4 37.1404 20.4 42.7404C20.4 48.3404 15.8 52.9404 10.2 52.9404ZM10.2 35.4404C6.2 35.4404 2.9 38.7404 2.9 42.7404C2.9 46.7404 6.2 49.9404 10.2 49.9404C14.2 49.9404 17.5 46.6404 17.5 42.6404C17.5 38.6404 14.2 35.4404 10.2 35.4404Z" fill="#ffffff"/>
<path d="M19.9 29.1404C14.3 29.1404 9.7 24.5404 9.7 18.9404C9.7 13.3404 14.3 8.6404 19.9 8.6404C25.5 8.6404 30.1 13.2404 30.1 18.8404C30.1 24.4404 25.5 29.1404 19.9 29.1404ZM19.9 11.6404C15.9 11.6404 12.6 14.9404 12.6 18.9404C12.6 22.9404 15.9 26.2404 19.9 26.2404C23.9 26.2404 27.2 22.9404 27.2 18.9404C27.2 14.9404 23.9 11.6404 19.9 11.6404Z" fill="#ffffff"/>
<path d="M65.6 75.7404C60 75.7404 55.4 71.1404 55.4 65.5404C55.4 59.9404 60 55.3404 65.6 55.3404C71.2 55.3404 75.8 59.9404 75.8 65.5404C75.8 71.1404 71.2 75.7404 65.6 75.7404ZM65.6 58.2404C61.6 58.2404 58.3 61.5404 58.3 65.5404C58.3 69.5404 61.6 72.8404 65.6 72.8404C69.6 72.8404 72.9 69.5404 72.9 65.5404C72.9 61.5404 69.6 58.2404 65.6 58.2404Z" fill="#ffffff"/>
<path d="M43.2 84.4404C37.6 84.4404 33 79.9404 33 74.2404C33 68.6404 37.6 64.0404 43.2 64.0404C48.8 64.0404 53.4 68.6404 53.4 74.2404C53.4 79.9404 48.9 84.4404 43.2 84.4404ZM43.2 66.9404C39.2 66.9404 35.9 70.2404 35.9 74.2404C35.9 78.2404 39.2 81.5404 43.2 81.5404C47.2 81.5404 50.5 78.2404 50.5 74.2404C50.5 70.2404 47.3 66.9404 43.2 66.9404Z" fill="#ffffff"/>
<path d="M19.9 75.7404C14.3 75.7404 9.7 71.1404 9.7 65.5404C9.7 59.9404 14.3 55.3404 19.9 55.3404C25.5 55.3404 30.1 59.9404 30.1 65.5404C30.1 71.1404 25.5 75.7404 19.9 75.7404ZM19.9 58.2404C15.9 58.2404 12.6 61.5404 12.6 65.5404C12.6 69.5404 15.9 72.8404 19.9 72.8404C23.9 72.8404 27.2 69.5404 27.2 65.5404C27.2 61.5404 23.9 58.2404 19.9 58.2404Z" fill="#ffffff"/>
<path d="M23.5 44.1404H15.6C14.8 44.1404 14.1 43.4404 14.1 42.6404C14.1 41.8404 14.8 41.1404 15.6 41.1404H23.5C24.3 41.1404 25 41.8404 25 42.6404C25 43.4404 24.3 44.1404 23.5 44.1404Z" fill="#ffffff"/>
<path d="M39.8 44.1404H30.6C29.8 44.1404 29.1 43.4404 29.1 42.6404C29.1 41.8404 29.8 41.1404 30.6 41.1404H39.8C40.6 41.1404 41.3 41.8404 41.3 42.6404C41.3 43.4404 40.6 44.1404 39.8 44.1404Z" fill="#ffffff"/>
<path d="M62.1 17.7404C61.8 17.7404 61.5 17.6404 61.2 17.4404C57 14.4404 52.1 12.4404 47 11.8404C46.2 11.7404 45.6 11.0404 45.7 10.2404C45.8 9.4404 46.5 8.8404 47.3 8.9404C52.9 9.6404 58.3 11.7404 62.8 15.1404C63.5 15.6404 63.6 16.5404 63.1 17.1404C63 17.5404 62.6 17.7404 62.1 17.7404Z" fill="#ffffff"/>
<path d="M24.2 17.8404C23.8 17.8404 23.3 17.6404 23 17.2404C22.5 16.6404 22.7 15.6404 23.3 15.2404C27.8 11.9404 33 9.74041 38.6 9.04041C39.4 8.9404 40.1 9.4404 40.2 10.2404C40.3 11.0404 39.8 11.7404 39 11.8404C34 12.5404 29.1 14.5404 25.1 17.5404C24.8 17.7404 24.5 17.8404 24.2 17.8404Z" fill="#ffffff"/>
<path d="M11.6 38.6404C11.5 38.6404 11.4 38.6404 11.4 38.6404C10.6 38.5404 10.1 37.7404 10.2 36.9404C11 31.7404 13.1 26.7404 16.2 22.4404C16.7 21.7404 17.6 21.6404 18.2 22.1404C18.9 22.6404 19 23.5404 18.5 24.1404C15.7 28.0404 13.7 32.6404 13 37.3404C12.9 38.1404 12.3 38.6404 11.6 38.6404Z" fill="#ffffff"/>
<path d="M47.3 75.6404C46.6 75.6404 45.9 75.1404 45.9 74.3404C45.8 73.5404 46.4 72.8404 47.2 72.7404C52.3 72.1404 57.2 70.1404 61.4 67.1404C62 66.6404 63 66.8404 63.4 67.4404C63.9 68.0404 63.7 69.0404 63.1 69.4404C58.5 72.7404 53.2 74.9404 47.6 75.6404C47.4 75.6404 47.3 75.6404 47.3 75.6404Z" fill="#ffffff"/>
<path d="M38.8 75.5404C38.7 75.5404 38.7 75.5404 38.6 75.5404C33.1 74.7404 27.8 72.6404 23.3 69.3404C22.7 68.8404 22.5 67.9404 23 67.3404C23.5 66.7404 24.4 66.5404 25 67.0404C29.1 70.0404 33.9 72.0404 38.9 72.7404C39.7 72.8404 40.3 73.5404 40.1 74.3404C40.1 75.0404 39.5 75.5404 38.8 75.5404Z" fill="#ffffff"/>
<path d="M17.3 62.6404C16.9 62.6404 16.4 62.4404 16.1 62.0404C13 57.7404 10.9 52.7404 10.1 47.5404C10 46.7404 10.5 46.0404 11.3 45.8404C12.1 45.7404 12.8 46.2404 13 47.0404C13.7 51.8404 15.6 56.3404 18.5 60.2404C19 60.9404 18.8 61.8404 18.2 62.2404C17.9 62.5404 17.6 62.6404 17.3 62.6404Z" fill="#ffffff"/>
<path d="M95.4 45.7404C95.2 45.5404 95.2 45.3404 95.2 45.1404V20.2404C95.2 19.9404 95.3 19.7404 95.4 19.5404C95.6 19.3404 95.8 19.3404 96 19.3404H111.6C111.9 19.3404 112.1 19.4404 112.3 19.5404C112.5 19.7404 112.5 19.9404 112.5 20.2404V21.6404C112.5 21.9404 112.4 22.1404 112.3 22.2404C112.1 22.4404 111.9 22.4404 111.6 22.4404H98.6V30.9404H110.7C111 30.9404 111.2 31.0404 111.4 31.1404C111.6 31.3404 111.6 31.5404 111.6 31.8404V33.1404C111.6 33.4404 111.5 33.6404 111.4 33.7404C111.2 33.9404 111 33.9404 110.7 33.9404H98.7V42.7404H112C112.3 42.7404 112.5 42.8404 112.7 42.9404C112.9 43.1404 112.9 43.3404 112.9 43.6404V45.0404C112.9 45.3404 112.8 45.5404 112.6 45.6404C112.4 45.8404 112.2 45.8404 112 45.8404H96C95.8 45.9404 95.6 45.8404 95.4 45.7404Z" fill="#ffffff"/>
<path d="M121.8 43.5404C120 41.7404 119 39.2404 118.9 36.1404C118.9 35.3404 118.9 34.1404 118.9 32.5404C118.9 30.9404 118.9 29.7404 118.9 28.9404C119 25.8404 120 23.3404 121.8 21.5404C123.6 19.7404 126.2 18.8404 129.5 18.8404C131.7 18.8404 133.6 19.2404 135.2 20.0404C136.7 20.8404 137.9 21.8404 138.7 22.9404C139.5 24.0404 139.9 25.1404 140 26.0404V26.1404C140 26.3404 139.9 26.5404 139.8 26.6404C139.6 26.7404 139.5 26.8404 139.2 26.8404H137C136.8 26.8404 136.6 26.7404 136.5 26.6404C136.4 26.5404 136.3 26.3404 136.2 26.0404C135.8 24.8404 135 23.8404 134 23.0404C132.9 22.2404 131.4 21.8404 129.6 21.8404C127.5 21.8404 125.8 22.4404 124.6 23.6404C123.4 24.8404 122.7 26.6404 122.7 29.0404C122.7 29.7404 122.7 30.9404 122.7 32.4404C122.7 33.9404 122.7 35.0404 122.7 35.8404C122.8 38.3404 123.4 40.1404 124.6 41.2404C125.8 42.4404 127.5 43.0404 129.6 43.0404C131.8 43.0404 133.5 42.4404 134.8 41.2404C136.1 40.0404 136.7 38.2404 136.7 35.9404V34.3404H130.9C130.6 34.3404 130.4 34.2404 130.3 34.0404C130.1 33.8404 130.1 33.6404 130.1 33.4404V32.3404C130.1 32.0404 130.2 31.8404 130.3 31.7404C130.5 31.5404 130.7 31.4404 130.9 31.4404H139.4C139.7 31.4404 139.9 31.5404 140.1 31.6404C140.3 31.8404 140.3 32.0404 140.3 32.3404V35.9404C140.3 38.0404 139.9 39.8404 139 41.3404C138.1 42.9404 136.9 44.1404 135.3 44.9404C133.7 45.8404 131.8 46.2404 129.6 46.2404C126.2 46.3404 123.6 45.4404 121.8 43.5404Z" fill="#ffffff"/>
<path d="M144.7 45.7404C144.5 45.5404 144.5 45.4404 144.5 45.2404L144.6 44.8404L154 20.2404C154.2 19.6404 154.6 19.4404 155.2 19.4404H157.6C158.2 19.4404 158.6 19.7404 158.8 20.2404L168.2 44.8404L168.3 45.2404C168.3 45.4404 168.2 45.6404 168.1 45.7404C167.9 45.9404 167.8 45.9404 167.5 45.9404H165.7C165.4 45.9404 165.2 45.8404 165.1 45.7404C164.9 45.6404 164.8 45.4404 164.8 45.3404L162.7 39.8404H150.1L148 45.3404C147.8 45.7404 147.5 45.9404 147 45.9404H145.2C145 45.9404 144.8 45.8404 144.7 45.7404ZM151.2 36.6404H161.6L156.4 22.9404L151.2 36.6404Z" fill="#ffffff"/>
<path d="M177.6 45.7404C177.4 45.5404 177.4 45.3404 177.4 45.1404V22.5404H170C169.7 22.5404 169.5 22.4404 169.4 22.3404C169.2 22.1404 169.2 21.9404 169.2 21.7404V20.2404C169.2 19.9404 169.3 19.7404 169.4 19.5404C169.6 19.3404 169.8 19.3404 170 19.3404H188.3C188.6 19.3404 188.8 19.4404 188.9 19.5404C189.1 19.7404 189.1 19.9404 189.1 20.2404V21.7404C189.1 22.0404 189 22.2404 188.9 22.3404C188.7 22.5404 188.5 22.5404 188.3 22.5404H181V45.0404C181 45.3404 180.9 45.5404 180.7 45.6404C180.5 45.8404 180.3 45.8404 180.1 45.8404H178.3C178 45.9404 177.8 45.8404 177.6 45.7404Z" fill="#ffffff"/>
<path d="M195.7 45.7404C195.5 45.5404 195.5 45.3404 195.5 45.1404V20.1404C195.5 19.8404 195.6 19.6404 195.7 19.5404C195.9 19.3404 196.1 19.3404 196.3 19.3404H198.2C198.5 19.3404 198.7 19.4404 198.8 19.5404C199 19.7404 199 19.9404 199 20.1404V45.0404C199 45.3404 198.9 45.5404 198.8 45.6404C198.6 45.8404 198.4 45.8404 198.2 45.8404H196.3C196 45.9404 195.8 45.8404 195.7 45.7404Z" fill="#ffffff"/>
<path d="M207.9 45.7404C207.7 45.5404 207.7 45.3404 207.7 45.1404V20.2404C207.7 19.9404 207.8 19.7404 207.9 19.5404C208.1 19.3404 208.3 19.3404 208.5 19.3404H210.2C210.5 19.3404 210.6 19.4404 210.8 19.5404C211 19.6404 211.1 19.7404 211.2 19.9404L223.9 39.5404V20.2404C223.9 19.9404 224 19.7404 224.1 19.5404C224.3 19.3404 224.5 19.3404 224.7 19.3404H226.4C226.7 19.3404 226.9 19.4404 227.1 19.5404C227.3 19.7404 227.3 19.9404 227.3 20.2404V45.0404C227.3 45.3404 227.2 45.5404 227.1 45.6404C226.9 45.8404 226.7 45.9404 226.5 45.9404H224.8C224.4 45.9404 224.1 45.7404 223.9 45.4404L211.1 25.9404V45.0404C211.1 45.3404 211 45.5404 210.9 45.6404C210.7 45.8404 210.5 45.8404 210.3 45.8404H208.5C208.2 45.9404 208 45.8404 207.9 45.7404Z" fill="#ffffff"/>
<path d="M95.4 57.9404L95.3 57.8404V52.1404C95.3 52.0404 95.3 52.0404 95.4 51.9404L95.5 51.8404H99.1C99.2 51.8404 99.2 51.8404 99.3 51.9404C99.4 52.0404 99.4 52.0404 99.4 52.1404V52.4404C99.4 52.5404 99.4 52.5404 99.3 52.5404C99.3 52.5404 99.2 52.6404 99.1 52.6404H96.1V54.5404H98.9C99 54.5404 99 54.5404 99.1 54.6404C99.2 54.7404 99.2 54.7404 99.2 54.8404V55.1404C99.2 55.2404 99.2 55.2404 99.1 55.2404C99 55.2404 99 55.3404 98.9 55.3404H96.1V57.3404H99.2C99.3 57.3404 99.3 57.3404 99.4 57.4404C99.4 57.4404 99.5 57.5404 99.5 57.6404V57.9404C99.5 58.0404 99.5 58.0404 99.4 58.0404L99.3 58.1404H95.6C95.5 57.9404 95.4 57.9404 95.4 57.9404Z" fill="#ffffff"/>
<path d="M100.9 57.5404C100.6 57.1404 100.4 56.7404 100.4 56.1404V53.6404C100.4 53.5404 100.4 53.5404 100.5 53.5404C100.6 53.5404 100.6 53.4404 100.6 53.4404H101C101.1 53.4404 101.1 53.4404 101.1 53.5404C101.1 53.6404 101.2 53.6404 101.2 53.6404V56.0404C101.2 56.9404 101.6 57.3404 102.4 57.3404C102.8 57.3404 103.1 57.2404 103.3 56.9404C103.5 56.7404 103.6 56.3404 103.6 55.9404V53.5404C103.6 53.4404 103.6 53.4404 103.7 53.4404C103.8 53.4404 103.8 53.3404 103.8 53.3404H104.2C104.3 53.3404 104.3 53.3404 104.3 53.4404C104.3 53.5404 104.4 53.5404 104.4 53.5404V57.6404C104.4 57.7404 104.4 57.7404 104.3 57.7404L104.2 57.8404H103.8C103.7 57.8404 103.7 57.8404 103.7 57.7404L103.6 57.6404V57.2404C103.4 57.4404 103.2 57.6404 103 57.7404C102.8 57.8404 102.5 57.9404 102.1 57.9404C101.6 58.0404 101.2 57.8404 100.9 57.5404Z" fill="#ffffff"/>
<path d="M105.8 57.9404L105.7 57.8404V53.7404C105.7 53.6404 105.7 53.6404 105.8 53.6404L105.9 53.5404H106.3C106.4 53.5404 106.4 53.5404 106.5 53.6404C106.5 53.6404 106.6 53.7404 106.6 53.8404V54.2404C106.8 53.8404 107.2 53.6404 107.8 53.6404H108.1C108.2 53.6404 108.2 53.6404 108.2 53.7404L108.3 53.8404V53.9404C108.3 54.0404 108.3 54.0404 108.2 54.0404L108.1 54.1404H107.6C107.3 54.1404 107 54.2404 106.8 54.4404C106.6 54.6404 106.5 54.8404 106.5 55.2404V57.8404C106.5 57.9404 106.5 57.9404 106.4 57.9404L106.3 58.0404H105.9C105.8 57.9404 105.8 57.9404 105.8 57.9404Z" fill="#ffffff"/>
<path d="M109.3 57.5404C109 57.1404 108.8 56.7404 108.7 56.1404V55.3404C108.7 54.7404 108.9 54.2404 109.3 53.9404C109.7 53.5404 110.1 53.4404 110.8 53.4404C111.4 53.4404 111.9 53.6404 112.3 53.9404C112.7 54.3404 112.8 54.7404 112.9 55.3404C112.9 55.4404 112.9 55.6404 112.9 55.7404C112.9 55.8404 112.9 55.9404 112.9 56.1404C112.9 56.7404 112.7 57.2404 112.3 57.5404C112 57.9404 111.5 58.0404 110.8 58.0404C110.1 58.0404 109.6 57.8404 109.3 57.5404ZM111.6 57.0404C111.8 56.8404 111.9 56.4404 112 56.0404C112 55.9404 112 55.8404 112 55.7404C112 55.6404 112 55.4404 112 55.4404C112 55.0404 111.9 54.6404 111.6 54.4404C111.4 54.2404 111.1 54.0404 110.7 54.0404C110.3 54.0404 110 54.1404 109.8 54.4404C109.6 54.6404 109.5 55.0404 109.4 55.4404V56.0404C109.4 56.4404 109.5 56.8404 109.8 57.0404C110 57.2404 110.3 57.4404 110.7 57.4404C111.1 57.3404 111.4 57.2404 111.6 57.0404Z" fill="#ffffff"/>
<path d="M114 59.5404L113.9 59.4404V53.6404C113.9 53.5404 113.9 53.5404 114 53.5404L114.1 53.4404H114.5C114.6 53.4404 114.6 53.4404 114.6 53.5404L114.7 53.6404V54.0404C115 53.6404 115.5 53.3404 116.1 53.3404C116.7 53.3404 117.2 53.5404 117.5 53.9404C117.8 54.3404 118 54.8404 118 55.4404C118 55.5404 118 55.6404 118 55.7404C118 55.8404 118 55.9404 118 56.0404C118 56.6404 117.8 57.1404 117.5 57.5404C117.2 57.9404 116.7 58.1404 116.1 58.1404C115.5 58.1404 115 57.9404 114.7 57.4404V59.4404C114.7 59.5404 114.7 59.5404 114.6 59.5404C114.5 59.5404 114.5 59.6404 114.5 59.6404H114.1C114.1 59.6404 114 59.6404 114 59.5404ZM116.9 56.9404C117.1 56.6404 117.2 56.3404 117.2 55.9404C117.2 55.8404 117.2 55.8404 117.2 55.6404C117.2 54.5404 116.8 53.9404 116 53.9404C115.6 53.9404 115.3 54.0404 115.1 54.3404C114.9 54.6404 114.8 54.9404 114.8 55.3404C114.8 55.4404 114.8 55.5404 114.8 55.6404C114.8 55.8404 114.8 55.9404 114.8 55.9404C114.8 56.3404 114.9 56.6404 115.1 56.8404C115.3 57.1404 115.6 57.2404 116 57.2404C116.4 57.3404 116.7 57.2404 116.9 56.9404Z" fill="#ffffff"/>
<path d="M119.5 57.4404C119.1 57.0404 118.9 56.5404 118.9 55.9404V55.3404C118.9 54.7404 119.1 54.2404 119.5 53.8404C119.9 53.4404 120.3 53.2404 120.9 53.2404C121.5 53.2404 122 53.4404 122.4 53.8404C122.8 54.2404 122.9 54.8404 122.9 55.5404V55.7404C122.9 55.8404 122.9 55.8404 122.8 55.8404C122.7 55.8404 122.7 55.9404 122.7 55.9404H119.7V56.0404C119.7 56.4404 119.8 56.7404 120 57.0404C120.2 57.3404 120.5 57.4404 120.9 57.4404C121.2 57.4404 121.4 57.3404 121.6 57.2404C121.8 57.1404 121.9 57.0404 122 56.9404C122.1 56.8404 122.1 56.8404 122.1 56.8404H122.6C122.7 56.8404 122.7 56.8404 122.7 56.8404L122.8 56.9404C122.8 57.0404 122.7 57.2404 122.6 57.4404C122.4 57.6404 122.2 57.7404 121.9 57.9404C121.6 58.0404 121.3 58.1404 120.9 58.1404C120.3 58.0404 119.8 57.8404 119.5 57.4404ZM122.1 55.3404C122.1 54.9404 122 54.5404 121.8 54.3404C121.6 54.0404 121.3 53.9404 120.9 53.9404C120.5 53.9404 120.2 54.0404 120 54.3404C119.8 54.6404 119.7 54.9404 119.7 55.3404H122.1Z" fill="#ffffff"/>
<path d="M124.5 57.8404C124.3 57.7404 124.1 57.5404 123.9 57.3404C123.8 57.1404 123.7 56.9404 123.7 56.6404C123.7 56.2404 123.9 55.9404 124.2 55.7404C124.5 55.5404 124.9 55.3404 125.5 55.2404L126.8 55.0404V54.7404C126.8 54.1404 126.5 53.8404 125.8 53.8404C125.5 53.8404 125.3 53.9404 125.2 54.0404C125 54.1404 124.9 54.2404 124.8 54.4404C124.8 54.5404 124.8 54.5404 124.7 54.5404H124.3C124.2 54.5404 124.2 54.5404 124.2 54.4404C124.2 54.3404 124.1 54.3404 124.1 54.3404C124.1 54.2404 124.2 54.0404 124.3 53.8404C124.4 53.6404 124.6 53.5404 124.9 53.3404C125.2 53.2404 125.5 53.1404 125.9 53.1404C126.6 53.1404 127 53.3404 127.3 53.6404C127.6 53.9404 127.7 54.3404 127.7 54.7404V57.5404C127.7 57.6404 127.7 57.6404 127.6 57.6404L127.5 57.7404H127.1C127 57.7404 127 57.7404 127 57.6404L126.9 57.5404V57.1404C126.8 57.3404 126.6 57.5404 126.3 57.6404C126 57.7404 125.7 57.8404 125.4 57.8404C125 58.0404 124.7 57.9404 124.5 57.8404ZM126.4 57.0404C126.6 56.7404 126.8 56.4404 126.8 55.9404V55.7404L125.8 55.8404C125.4 55.9404 125.1 56.0404 124.8 56.1404C124.6 56.2404 124.5 56.4404 124.5 56.6404C124.5 56.8404 124.6 57.0404 124.8 57.2404C125 57.4404 125.2 57.4404 125.5 57.4404C125.8 57.4404 126.1 57.2404 126.4 57.0404Z" fill="#ffffff"/>
<path d="M128.8 57.9404L128.7 57.8404V53.7404C128.7 53.6404 128.7 53.6404 128.8 53.6404L128.9 53.5404H129.3C129.4 53.5404 129.4 53.5404 129.4 53.6404L129.5 53.7404V54.1404C129.7 53.9404 129.9 53.7404 130.1 53.6404C130.3 53.5404 130.6 53.4404 131 53.4404C131.6 53.4404 132 53.6404 132.3 53.9404C132.6 54.3404 132.8 54.7404 132.8 55.3404V57.8404C132.8 57.9404 132.8 57.9404 132.7 57.9404L132.6 58.0404H132.2C132.1 58.0404 132.1 58.0404 132.1 57.9404L132 57.8404V55.4404C132 55.0404 131.9 54.7404 131.7 54.4404C131.5 54.2404 131.2 54.0404 130.8 54.0404C130.4 54.0404 130.1 54.1404 129.9 54.4404C129.7 54.6404 129.6 55.0404 129.6 55.4404V57.8404C129.6 57.9404 129.6 57.9404 129.5 57.9404L129.4 58.0404H129C128.9 57.9404 128.9 57.9404 128.8 57.9404Z" fill="#ffffff"/>
<path d="M136.8 57.4404C136.4 57.0404 136.2 56.4404 136.1 55.7404C136.1 55.5404 136.1 55.3404 136.1 54.9404C136.1 54.5404 136.1 54.2404 136.1 54.1404C136.1 53.4404 136.3 52.8404 136.8 52.4404C137.2 52.0404 137.8 51.8404 138.6 51.8404C139.1 51.8404 139.5 51.9404 139.9 52.1404C140.3 52.3404 140.5 52.5404 140.7 52.8404C140.9 53.1404 141 53.3404 141 53.5404C141 53.5404 141 53.6404 140.9 53.6404H140.3C140.2 53.6404 140.2 53.6404 140.2 53.6404L140.1 53.5404C140 53.2404 139.8 53.0404 139.6 52.8404C139.3 52.6404 139 52.5404 138.6 52.5404C138.1 52.5404 137.7 52.6404 137.4 52.9404C137.1 53.2404 137 53.6404 137 54.1404C137 54.3404 137 54.5404 137 54.9404C137 55.2404 137 55.5404 137 55.7404C137 56.3404 137.2 56.7404 137.4 57.0404C137.7 57.3404 138.1 57.4404 138.6 57.4404C139.1 57.4404 139.5 57.3404 139.8 57.0404C140.1 56.7404 140.2 56.3404 140.2 55.8404V55.4404H138.9C138.8 55.4404 138.8 55.4404 138.8 55.3404L138.7 55.2404V54.9404C138.7 54.8404 138.7 54.8404 138.8 54.8404L138.9 54.7404H140.9C141 54.7404 141 54.7404 141.1 54.8404C141.1 54.8404 141.2 54.9404 141.2 55.0404V55.8404C141.2 56.3404 141.1 56.7404 140.9 57.0404C140.7 57.4404 140.4 57.6404 140 57.8404C139.6 58.0404 139.2 58.1404 138.7 58.1404C137.8 58.0404 137.2 57.8404 136.8 57.4404Z" fill="#ffffff"/>
<path d="M142.2 57.9404L142.1 57.8404V53.7404C142.1 53.6404 142.1 53.6404 142.2 53.6404L142.3 53.5404H142.7C142.8 53.5404 142.8 53.5404 142.9 53.6404C142.9 53.6404 143 53.7404 143 53.8404V54.2404C143.2 53.8404 143.6 53.6404 144.2 53.6404H144.5C144.6 53.6404 144.6 53.6404 144.6 53.7404L144.7 53.8404V53.9404C144.7 54.0404 144.7 54.0404 144.6 54.0404L144.5 54.1404H144C143.7 54.1404 143.4 54.2404 143.2 54.4404C143 54.6404 142.9 54.8404 142.9 55.2404V57.8404C142.9 57.9404 142.9 57.9404 142.8 57.9404L142.7 58.0404H142.3C142.3 57.9404 142.3 57.9404 142.2 57.9404Z" fill="#ffffff"/>
<path d="M145.7 57.5404C145.4 57.1404 145.2 56.7404 145.1 56.1404V55.3404C145.1 54.7404 145.3 54.2404 145.7 53.9404C146.1 53.5404 146.5 53.4404 147.2 53.4404C147.8 53.4404 148.3 53.6404 148.7 53.9404C149.1 54.3404 149.2 54.7404 149.3 55.3404C149.3 55.4404 149.3 55.6404 149.3 55.7404C149.3 55.8404 149.3 55.9404 149.3 56.1404C149.3 56.7404 149.1 57.2404 148.7 57.5404C148.4 57.9404 147.9 58.0404 147.2 58.0404C146.6 58.0404 146.1 57.8404 145.7 57.5404ZM148.1 57.0404C148.3 56.8404 148.4 56.4404 148.5 56.0404C148.5 55.9404 148.5 55.8404 148.5 55.7404C148.5 55.6404 148.5 55.4404 148.5 55.4404C148.5 55.0404 148.4 54.6404 148.1 54.4404C147.9 54.2404 147.6 54.0404 147.2 54.0404C146.8 54.0404 146.5 54.1404 146.3 54.4404C146.1 54.6404 146 55.0404 145.9 55.4404V56.0404C145.9 56.4404 146 56.8404 146.3 57.0404C146.5 57.2404 146.8 57.4404 147.2 57.4404C147.6 57.3404 147.9 57.2404 148.1 57.0404Z" fill="#ffffff"/>
<path d="M150.8 57.5404C150.5 57.1404 150.3 56.7404 150.3 56.1404V53.6404C150.3 53.5404 150.3 53.5404 150.4 53.5404L150.5 53.4404H150.9C151 53.4404 151 53.4404 151 53.5404L151.1 53.6404V56.0404C151.1 56.9404 151.5 57.3404 152.3 57.3404C152.7 57.3404 153 57.2404 153.2 56.9404C153.4 56.7404 153.5 56.3404 153.5 55.9404V53.5404C153.5 53.4404 153.5 53.4404 153.6 53.4404L153.7 53.3404H154.1C154.2 53.3404 154.2 53.3404 154.2 53.4404L154.3 53.5404V57.6404C154.3 57.7404 154.3 57.7404 154.2 57.7404L154.1 57.8404H153.7C153.6 57.8404 153.6 57.8404 153.6 57.7404L153.5 57.6404V57.2404C153.3 57.4404 153.1 57.6404 152.9 57.7404C152.7 57.8404 152.4 57.9404 152 57.9404C151.5 58.0404 151.1 57.8404 150.8 57.5404Z" fill="#ffffff"/>
<path d="M155.7 59.5404L155.6 59.4404V53.6404C155.6 53.5404 155.6 53.5404 155.7 53.5404L155.8 53.4404H156.2C156.3 53.4404 156.3 53.4404 156.3 53.5404L156.4 53.6404V54.0404C156.7 53.6404 157.2 53.3404 157.8 53.3404C158.4 53.3404 158.9 53.5404 159.2 53.9404C159.5 54.3404 159.7 54.8404 159.7 55.4404C159.7 55.5404 159.7 55.6404 159.7 55.7404C159.7 55.8404 159.7 55.9404 159.7 56.0404C159.7 56.6404 159.5 57.1404 159.2 57.5404C158.9 57.9404 158.4 58.1404 157.8 58.1404C157.2 58.1404 156.7 57.9404 156.4 57.4404V59.4404C156.4 59.5404 156.4 59.5404 156.3 59.5404L156.2 59.6404H155.8C155.8 59.6404 155.7 59.6404 155.7 59.5404ZM158.6 56.9404C158.8 56.6404 158.9 56.3404 158.9 55.9404C158.9 55.8404 158.9 55.8404 158.9 55.6404C158.9 54.5404 158.5 53.9404 157.7 53.9404C157.3 53.9404 157 54.0404 156.8 54.3404C156.6 54.6404 156.5 54.9404 156.5 55.3404C156.5 55.4404 156.5 55.5404 156.5 55.6404C156.5 55.8404 156.5 55.9404 156.5 55.9404C156.5 56.3404 156.6 56.6404 156.8 56.8404C157 57.1404 157.3 57.2404 157.7 57.2404C158.1 57.3404 158.4 57.2404 158.6 56.9404Z" fill="#ffffff"/>
<path d="M162.3 57.9404L162.2 57.8404V57.7404L164.4 52.0404C164.4 51.9404 164.5 51.8404 164.7 51.8404H165.3C165.4 51.8404 165.5 51.9404 165.6 52.0404L167.8 57.7404V57.8404C167.8 57.8404 167.8 57.9404 167.7 57.9404L167.6 58.0404H167.2C167.1 58.0404 167.1 58.0404 167.1 58.0404L167 57.9404L166.5 56.6404H163.6L163.1 57.9404C163.1 58.0404 163 58.0404 162.9 58.0404H162.5C162.4 57.9404 162.3 57.9404 162.3 57.9404ZM163.8 55.8404H166.2L165 52.7404L163.8 55.8404Z" fill="#ffffff"/>
<path d="M168.6 57.9404L168.5 57.8404V53.7404C168.5 53.6404 168.5 53.6404 168.6 53.6404L168.7 53.5404H169.1C169.2 53.5404 169.2 53.5404 169.2 53.6404L169.3 53.7404V54.1404C169.5 53.9404 169.7 53.7404 169.9 53.6404C170.1 53.5404 170.4 53.4404 170.8 53.4404C171.4 53.4404 171.8 53.6404 172.1 53.9404C172.4 54.3404 172.6 54.7404 172.6 55.3404V57.8404C172.6 57.9404 172.6 57.9404 172.5 57.9404L172.4 58.0404H172C171.9 58.0404 171.9 58.0404 171.9 57.9404L171.8 57.8404V55.4404C171.8 55.0404 171.7 54.7404 171.5 54.4404C171.3 54.2404 171 54.0404 170.6 54.0404C170.2 54.0404 169.9 54.1404 169.7 54.4404C169.5 54.6404 169.4 55.0404 169.4 55.4404V57.8404C169.4 57.9404 169.4 57.9404 169.3 57.9404L169.2 58.0404H168.8C168.7 57.9404 168.7 57.9404 168.6 57.9404Z" fill="#ffffff"/>
<path d="M174.3 57.8404C174.1 57.7404 173.9 57.5404 173.7 57.3404C173.6 57.1404 173.5 56.9404 173.5 56.6404C173.5 56.2404 173.7 55.9404 174 55.7404C174.3 55.5404 174.7 55.3404 175.3 55.2404L176.6 55.0404V54.7404C176.6 54.1404 176.3 53.8404 175.6 53.8404C175.3 53.8404 175.1 53.9404 175 54.0404C174.8 54.1404 174.7 54.2404 174.6 54.4404C174.6 54.5404 174.6 54.5404 174.5 54.5404H174C173.9 54.5404 173.9 54.5404 173.9 54.4404L173.8 54.3404C173.8 54.2404 173.9 54.0404 174 53.8404C174.1 53.6404 174.3 53.5404 174.6 53.3404C174.9 53.2404 175.2 53.1404 175.6 53.1404C176.3 53.1404 176.7 53.3404 177 53.6404C177.3 53.9404 177.4 54.3404 177.4 54.7404V57.5404C177.4 57.6404 177.4 57.6404 177.3 57.6404L177.2 57.7404H176.8C176.7 57.7404 176.7 57.7404 176.7 57.6404L176.6 57.5404V57.1404C176.5 57.3404 176.3 57.5404 176 57.6404C175.7 57.7404 175.4 57.8404 175.1 57.8404C174.8 58.0404 174.6 57.9404 174.3 57.8404ZM176.2 57.0404C176.4 56.7404 176.6 56.4404 176.6 55.9404V55.7404L175.6 55.8404C175.2 55.9404 174.9 56.0404 174.6 56.1404C174.4 56.2404 174.3 56.4404 174.3 56.6404C174.3 56.8404 174.4 57.0404 174.6 57.2404C174.8 57.3404 175 57.4404 175.3 57.4404C175.7 57.4404 176 57.2404 176.2 57.0404Z" fill="#ffffff"/>
<path d="M178.7 57.9404L178.6 57.8404V51.9404C178.6 51.8404 178.6 51.8404 178.7 51.8404L178.8 51.7404H179.2C179.3 51.7404 179.3 51.7404 179.3 51.8404L179.4 51.9404V57.7404C179.4 57.8404 179.4 57.8404 179.3 57.8404L179.2 57.9404H178.8C178.8 57.9404 178.8 57.9404 178.7 57.9404Z" fill="#ffffff"/>
<path d="M181.4 59.5404L181.3 59.4404C181.3 59.4404 181.3 59.3404 181.3 59.2404L182 57.6404L180.3 53.7404C180.3 53.6404 180.2 53.6404 180.2 53.6404C180.2 53.5404 180.2 53.5404 180.3 53.5404L180.4 53.4404H180.8C180.9 53.4404 181 53.4404 181 53.5404L182.3 56.7404L183.7 53.5404C183.7 53.4404 183.8 53.4404 183.9 53.4404H184.3C184.3 53.4404 184.4 53.4404 184.4 53.5404L184.5 53.6404C184.5 53.6404 184.5 53.7404 184.5 53.8404L182 59.5404L181.9 59.6404H181.4C181.5 59.6404 181.5 59.6404 181.4 59.5404Z" fill="#ffffff"/>
<path d="M186 56.4404V54.1404H185.3C185.2 54.1404 185.2 54.1404 185.2 54.0404L185.1 53.9404V53.6404C185.1 53.5404 185.1 53.5404 185.2 53.5404L185.3 53.4404H186V51.9404C186 51.8404 186 51.8404 186.1 51.8404C186.2 51.8404 186.2 51.7404 186.2 51.7404H186.6C186.7 51.7404 186.7 51.7404 186.7 51.8404L186.8 51.9404V53.4404H187.9C188 53.4404 188 53.4404 188 53.5404L188.1 53.6404V53.9404C188.1 54.0404 188.1 54.0404 188 54.0404L187.9 54.1404H186.8V56.4404C186.8 56.7404 186.8 56.9404 186.9 57.1404C187 57.3404 187.2 57.3404 187.4 57.3404H187.9C188 57.3404 188 57.3404 188 57.4404L188.1 57.5404V57.8404C188.1 57.9404 188.1 57.9404 188 57.9404L187.9 58.0404H187.3C186.4 57.9404 186 57.4404 186 56.4404Z" fill="#ffffff"/>
<path d="M188.9 52.5404L188.8 52.4404V51.9404C188.8 51.8404 188.8 51.8404 188.9 51.8404L189 51.7404H189.5C189.6 51.7404 189.6 51.7404 189.6 51.8404C189.6 51.9404 189.7 51.9404 189.7 51.9404V52.4404C189.7 52.5404 189.7 52.5404 189.6 52.5404C189.5 52.5404 189.5 52.6404 189.5 52.6404H189C189 52.5404 189 52.5404 188.9 52.5404ZM189 57.9404L188.9 57.8404V53.7404C188.9 53.6404 188.9 53.6404 189 53.6404L189.1 53.5404H189.5C189.6 53.5404 189.6 53.5404 189.6 53.6404L189.7 53.7404V57.8404C189.7 57.9404 189.7 57.9404 189.6 57.9404L189.5 58.0404H189.1C189.1 57.9404 189.1 57.9404 189 57.9404Z" fill="#ffffff"/>
<path d="M191.4 57.5404C191 57.1404 190.9 56.7404 190.8 56.0404V55.3404C190.8 54.7404 191 54.2404 191.4 53.8404C191.8 53.4404 192.2 53.3404 192.9 53.3404C193.3 53.3404 193.7 53.4404 194 53.5404C194.3 53.6404 194.5 53.8404 194.6 54.1404C194.7 54.3404 194.8 54.5404 194.8 54.8404C194.8 54.9404 194.8 54.9404 194.7 54.9404L194.6 55.0404H194.2C194.1 55.0404 194.1 55.0404 194.1 55.0404L194 54.9404C193.9 54.6404 193.8 54.4404 193.6 54.3404C193.4 54.2404 193.2 54.1404 192.9 54.1404C192.5 54.1404 192.2 54.2404 192 54.4404C191.8 54.6404 191.7 55.0404 191.6 55.4404V56.0404C191.6 56.5404 191.7 56.8404 192 57.0404C192.2 57.2404 192.5 57.3404 192.9 57.3404C193.2 57.3404 193.4 57.2404 193.6 57.1404C193.8 57.0404 193.9 56.8404 194 56.5404C194 56.4404 194.1 56.4404 194.1 56.4404H194.6C194.7 56.4404 194.7 56.4404 194.7 56.5404L194.8 56.6404C194.8 56.8404 194.7 57.0404 194.6 57.3404C194.5 57.5404 194.2 57.7404 194 57.9404C193.7 58.1404 193.4 58.1404 192.9 58.1404C192.3 58.0404 191.8 57.8404 191.4 57.5404Z" fill="#ffffff"/>
<path d="M199.3 57.9404L199.2 57.8404V52.6404H197.5C197.4 52.6404 197.4 52.6404 197.4 52.5404L197.3 52.4404V52.1404C197.3 52.0404 197.3 52.0404 197.4 51.9404L197.5 51.8404H201.7C201.8 51.8404 201.8 51.8404 201.8 51.9404C201.8 52.0404 201.9 52.0404 201.9 52.1404V52.4404C201.9 52.5404 201.9 52.5404 201.8 52.5404L201.7 52.6404H200V57.8404C200 57.9404 200 57.9404 199.9 57.9404L199.8 58.0404H199.4C199.4 57.9404 199.3 57.9404 199.3 57.9404Z" fill="#ffffff"/>
<path d="M202.2 57.9404L202.1 57.8404V53.7404C202.1 53.6404 202.1 53.6404 202.2 53.6404L202.3 53.5404H202.7C202.8 53.5404 202.8 53.5404 202.9 53.6404C202.9 53.6404 203 53.7404 203 53.8404V54.2404C203.2 53.8404 203.6 53.6404 204.2 53.6404H204.5C204.6 53.6404 204.6 53.6404 204.6 53.7404L204.7 53.8404V53.9404C204.7 54.0404 204.7 54.0404 204.6 54.0404L204.5 54.1404H204C203.7 54.1404 203.4 54.2404 203.2 54.4404C203 54.6404 202.9 54.8404 202.9 55.2404V57.8404C202.9 57.9404 202.9 57.9404 202.8 57.9404L202.7 58.0404H202.3C202.3 57.9404 202.2 57.9404 202.2 57.9404Z" fill="#ffffff"/>
<path d="M205.8 57.8404C205.6 57.7404 205.4 57.5404 205.2 57.3404C205.1 57.1404 205 56.9404 205 56.6404C205 56.2404 205.2 55.9404 205.5 55.7404C205.8 55.5404 206.2 55.3404 206.8 55.2404L208.1 55.0404V54.7404C208.1 54.1404 207.8 53.8404 207.1 53.8404C206.8 53.8404 206.6 53.9404 206.5 54.0404C206.3 54.1404 206.2 54.2404 206.1 54.4404C206.1 54.5404 206.1 54.5404 206 54.5404H205.6C205.5 54.5404 205.5 54.5404 205.5 54.4404L205.4 54.3404C205.4 54.2404 205.5 54.0404 205.6 53.8404C205.7 53.6404 205.9 53.5404 206.2 53.3404C206.5 53.2404 206.8 53.1404 207.2 53.1404C207.9 53.1404 208.3 53.3404 208.6 53.6404C208.9 53.9404 209 54.3404 209 54.7404V57.5404C209 57.6404 209 57.6404 208.9 57.6404L208.8 57.7404H208.4C208.3 57.7404 208.3 57.7404 208.3 57.6404L208.2 57.5404V57.1404C208.1 57.3404 207.9 57.5404 207.6 57.6404C207.4 57.7404 207 57.8404 206.7 57.8404C206.3 58.0404 206 57.9404 205.8 57.8404ZM207.7 57.0404C207.9 56.7404 208.1 56.4404 208.1 55.9404V55.7404L207.1 55.8404C206.7 55.9404 206.4 56.0404 206.1 56.1404C205.9 56.2404 205.8 56.4404 205.8 56.6404C205.8 56.8404 205.9 57.0404 206.1 57.2404C206.3 57.3404 206.5 57.4404 206.8 57.4404C207.2 57.4404 207.5 57.2404 207.7 57.0404Z" fill="#ffffff"/>
<path d="M210.1 52.5404L210 52.4404V51.9404C210 51.8404 210 51.8404 210.1 51.8404L210.2 51.7404H210.7C210.8 51.7404 210.8 51.7404 210.8 51.8404C210.8 51.9404 210.9 51.9404 210.9 51.9404V52.4404C210.9 52.5404 210.9 52.5404 210.8 52.5404C210.7 52.5404 210.7 52.6404 210.7 52.6404H210.2C210.2 52.5404 210.2 52.5404 210.1 52.5404ZM210.2 57.9404L210.1 57.8404V53.7404C210.1 53.6404 210.1 53.6404 210.2 53.6404C210.3 53.6404 210.3 53.5404 210.3 53.5404H210.7C210.8 53.5404 210.8 53.5404 210.8 53.6404L210.9 53.7404V57.8404C210.9 57.9404 210.9 57.9404 210.8 57.9404L210.7 58.0404H210.3C210.3 57.9404 210.2 57.9404 210.2 57.9404Z" fill="#ffffff"/>
<path d="M212.3 57.9404L212.2 57.8404V53.7404C212.2 53.6404 212.2 53.6404 212.3 53.6404L212.4 53.5404H212.8C212.9 53.5404 212.9 53.5404 212.9 53.6404L213 53.7404V54.1404C213.2 53.9404 213.4 53.7404 213.6 53.6404C213.8 53.5404 214.1 53.4404 214.5 53.4404C215.1 53.4404 215.5 53.6404 215.8 53.9404C216.1 54.3404 216.3 54.7404 216.3 55.3404V57.8404C216.3 57.9404 216.3 57.9404 216.2 57.9404L216.1 58.0404H215.7C215.6 58.0404 215.6 58.0404 215.6 57.9404L215.5 57.8404V55.4404C215.5 55.0404 215.4 54.7404 215.2 54.4404C215 54.2404 214.7 54.0404 214.3 54.0404C213.9 54.0404 213.6 54.1404 213.4 54.4404C213.2 54.6404 213.1 55.0404 213.1 55.4404V57.8404C213.1 57.9404 213.1 57.9404 213 57.9404L212.9 58.0404H212.5C212.4 57.9404 212.3 57.9404 212.3 57.9404Z" fill="#ffffff"/>
<path d="M217.5 52.5404L217.4 52.4404V51.9404C217.4 51.8404 217.4 51.8404 217.5 51.8404L217.6 51.7404H218.1C218.2 51.7404 218.2 51.7404 218.2 51.8404C218.2 51.9404 218.3 51.9404 218.3 51.9404V52.4404C218.3 52.5404 218.3 52.5404 218.2 52.5404C218.1 52.5404 218.1 52.6404 218.1 52.6404H217.6C217.6 52.5404 217.6 52.5404 217.5 52.5404ZM217.6 57.9404L217.5 57.8404V53.7404C217.5 53.6404 217.5 53.6404 217.6 53.6404L217.7 53.5404H218.1C218.2 53.5404 218.2 53.5404 218.2 53.6404L218.3 53.7404V57.8404C218.3 57.9404 218.3 57.9404 218.2 57.9404L218.1 58.0404H217.7C217.7 57.9404 217.6 57.9404 217.6 57.9404Z" fill="#ffffff"/>
<path d="M219.7 57.9404L219.6 57.8404V53.7404C219.6 53.6404 219.6 53.6404 219.7 53.6404L219.8 53.5404H220.2C220.3 53.5404 220.3 53.5404 220.3 53.6404L220.4 53.7404V54.1404C220.6 53.9404 220.8 53.7404 221 53.6404C221.2 53.5404 221.5 53.4404 221.9 53.4404C222.5 53.4404 222.9 53.6404 223.2 53.9404C223.5 54.3404 223.7 54.7404 223.7 55.3404V57.8404C223.7 57.9404 223.7 57.9404 223.6 57.9404L223.5 58.0404H223C222.9 58.0404 222.9 58.0404 222.9 57.9404L222.8 57.8404V55.4404C222.8 55.0404 222.7 54.7404 222.5 54.4404C222.3 54.2404 222 54.0404 221.6 54.0404C221.2 54.0404 220.9 54.1404 220.7 54.4404C220.5 54.6404 220.4 55.0404 220.4 55.4404V57.8404C220.4 57.9404 220.4 57.9404 220.3 57.9404L220.2 58.0404H219.8C219.8 57.9404 219.7 57.9404 219.7 57.9404Z" fill="#ffffff"/>
<path d="M225.6 59.6404C225.3 59.4404 225.1 59.3404 225 59.0404C224.9 58.8404 224.8 58.6404 224.8 58.5404C224.8 58.4404 224.8 58.4404 224.9 58.4404C225 58.4404 225 58.3404 225 58.3404H225.4C225.5 58.3404 225.5 58.3404 225.5 58.3404L225.6 58.4404C225.8 58.9404 226.1 59.1404 226.7 59.1404C227.1 59.1404 227.5 59.0404 227.7 58.8404C227.9 58.6404 228 58.3404 228 57.8404V57.2404C227.7 57.6404 227.2 57.8404 226.6 57.8404C226 57.8404 225.5 57.6404 225.2 57.2404C224.9 56.8404 224.7 56.3404 224.7 55.7404V55.3404C224.7 54.7404 224.9 54.2404 225.2 53.8404C225.5 53.4404 226 53.2404 226.6 53.2404C227.2 53.2404 227.7 53.4404 228 53.9404V53.5404C228 53.4404 228 53.4404 228.1 53.4404L228.2 53.3404H228.6C228.7 53.3404 228.7 53.3404 228.7 53.4404L228.8 53.5404V57.7404C228.8 59.0404 228.1 59.7404 226.8 59.7404C226.3 59.8404 225.9 59.8404 225.6 59.6404ZM227.7 56.9404C227.9 56.6404 228 56.3404 228 55.9404C228 55.8404 228 55.7404 228 55.6404C228 55.5404 228 55.4404 228 55.3404C228 54.9404 227.9 54.6404 227.7 54.3404C227.5 54.0404 227.2 53.9404 226.8 53.9404C226.4 53.9404 226.1 54.0404 225.9 54.3404C225.7 54.6404 225.6 54.9404 225.6 55.3404V55.7404C225.6 56.1404 225.7 56.5404 225.9 56.7404C226.1 57.0404 226.4 57.1404 226.8 57.1404C227.1 57.3404 227.5 57.1404 227.7 56.9404Z" fill="#ffffff"/>
<path d="M95.4 68.4404L95.3 68.3404V62.6404C95.3 62.5404 95.3 62.5404 95.4 62.5404L95.5 62.4404H96C96.1 62.4404 96.1 62.4404 96.1 62.5404L96.2 62.6404V68.3404C96.2 68.4404 96.2 68.4404 96.1 68.4404C96 68.4404 96 68.4404 96 68.4404H95.6C95.5 68.4404 95.4 68.4404 95.4 68.4404Z" fill="#ffffff"/>
<path d="M97.6 68.4404L97.5 68.3404V64.2404C97.5 64.1404 97.5 64.1404 97.6 64.1404L97.7 64.0404H98.1C98.2 64.0404 98.2 64.0404 98.2 64.1404L98.3 64.2404V64.6404C98.5 64.4404 98.7 64.2404 98.9 64.1404C99.1 64.0404 99.4 63.9404 99.8 63.9404C100.4 63.9404 100.8 64.1404 101.1 64.4404C101.4 64.8404 101.6 65.2404 101.6 65.8404V68.3404C101.6 68.4404 101.6 68.4404 101.5 68.4404C101.4 68.4404 101.4 68.5404 101.4 68.5404H101C100.9 68.5404 100.9 68.5404 100.9 68.4404C100.9 68.3404 100.8 68.3404 100.8 68.3404V65.9404C100.8 65.5404 100.7 65.2404 100.5 64.9404C100.3 64.7404 100 64.5404 99.6 64.5404C99.2 64.5404 98.9 64.6404 98.7 64.9404C98.5 65.1404 98.4 65.5404 98.4 65.9404V68.3404C98.4 68.4404 98.4 68.4404 98.3 68.4404C98.2 68.4404 98.2 68.5404 98.2 68.5404H97.8C97.7 68.4404 97.7 68.4404 97.6 68.4404Z" fill="#ffffff"/>
<path d="M103.4 68.3404C103.1 68.2404 102.9 68.0404 102.8 67.8404C102.7 67.6404 102.6 67.5404 102.6 67.4404C102.6 67.3404 102.6 67.3404 102.7 67.3404H103.3C103.3 67.3404 103.3 67.3404 103.4 67.4404C103.5 67.6404 103.7 67.7404 103.9 67.8404C104.1 67.9404 104.3 67.9404 104.6 67.9404C104.9 67.9404 105.2 67.8404 105.4 67.7404C105.6 67.6404 105.7 67.4404 105.7 67.2404C105.7 67.1404 105.7 66.9404 105.6 66.8404C105.5 66.7404 105.4 66.6404 105.2 66.6404C105 66.5404 104.7 66.5404 104.4 66.4404C103.9 66.3404 103.5 66.1404 103.3 65.9404C103.1 65.7404 103 65.4404 103 65.1404C103 64.9404 103.1 64.7404 103.2 64.5404C103.3 64.3404 103.5 64.1404 103.8 64.0404C104.1 63.9404 104.4 63.8404 104.7 63.8404C105.1 63.8404 105.4 63.9404 105.6 64.0404C105.9 64.1404 106.1 64.3404 106.2 64.4404C106.3 64.6404 106.4 64.7404 106.4 64.8404C106.4 64.9404 106.4 64.9404 106.3 64.9404C106.2 64.9404 106.2 65.0404 106.2 65.0404H105.9C105.8 65.0404 105.8 65.0404 105.7 64.9404C105.6 64.8404 105.5 64.7404 105.5 64.6404C105.4 64.5404 105.3 64.5404 105.2 64.4404C105.1 64.4404 104.9 64.3404 104.7 64.3404C104.4 64.3404 104.2 64.4404 104 64.5404C103.8 64.6404 103.8 64.8404 103.8 65.0404C103.8 65.1404 103.8 65.2404 103.9 65.3404C104 65.4404 104.1 65.5404 104.3 65.5404C104.5 65.6404 104.7 65.6404 105.1 65.7404C105.7 65.8404 106 66.0404 106.3 66.2404C106.5 66.4404 106.6 66.7404 106.6 67.0404C106.6 67.3404 106.5 67.5404 106.4 67.7404C106.3 67.9404 106 68.1404 105.8 68.2404C105.5 68.3404 105.2 68.4404 104.8 68.4404C104 68.5404 103.7 68.4404 103.4 68.3404Z" fill="#ffffff"/>
<path d="M107.7 66.9404V64.6404H107C106.9 64.6404 106.9 64.6404 106.9 64.5404L106.8 64.4404V64.1404C106.8 64.0404 106.8 64.0404 106.9 64.0404L107 63.9404H107.7V62.4404C107.7 62.3404 107.7 62.3404 107.8 62.3404C107.9 62.3404 107.9 62.2404 107.9 62.2404H108.3C108.4 62.2404 108.4 62.2404 108.4 62.3404C108.4 62.4404 108.5 62.4404 108.5 62.4404V63.9404H109.6C109.7 63.9404 109.7 63.9404 109.7 64.0404L109.8 64.1404V64.4404C109.8 64.5404 109.8 64.5404 109.7 64.5404C109.6 64.5404 109.6 64.6404 109.6 64.6404H108.5V66.9404C108.5 67.2404 108.5 67.4404 108.6 67.6404C108.7 67.8404 108.9 67.8404 109.1 67.8404H109.6C109.7 67.8404 109.7 67.8404 109.7 67.9404L109.8 68.0404V68.3404C109.8 68.4404 109.8 68.4404 109.7 68.4404L109.6 68.5404H109C108.1 68.4404 107.7 67.9404 107.7 66.9404Z" fill="#ffffff"/>
<path d="M110.7 62.9404L110.6 62.8404V62.3404C110.6 62.2404 110.6 62.2404 110.7 62.2404L110.8 62.1404H111.3C111.4 62.1404 111.4 62.1404 111.4 62.2404L111.5 62.3404V62.8404C111.5 62.9404 111.5 62.9404 111.4 62.9404C111.3 62.9404 111.3 63.0404 111.3 63.0404H110.8C110.8 63.0404 110.7 63.0404 110.7 62.9404ZM110.7 68.4404L110.6 68.3404V64.2404C110.6 64.1404 110.6 64.1404 110.7 64.1404L110.8 64.0404H111.2C111.3 64.0404 111.3 64.0404 111.3 64.1404L111.4 64.2404V68.3404C111.4 68.4404 111.4 68.4404 111.3 68.4404C111.2 68.4404 111.2 68.5404 111.2 68.5404H110.8C110.8 68.4404 110.8 68.4404 110.7 68.4404Z" fill="#ffffff"/>
<path d="M113.2 66.9404V64.6404H112.5C112.4 64.6404 112.4 64.6404 112.4 64.5404L112.3 64.4404V64.1404C112.3 64.0404 112.3 64.0404 112.4 64.0404L112.5 63.9404H113.2V62.4404C113.2 62.3404 113.2 62.3404 113.3 62.3404C113.4 62.3404 113.4 62.2404 113.4 62.2404H113.8C113.9 62.2404 113.9 62.2404 113.9 62.3404C113.9 62.4404 114 62.4404 114 62.4404V63.9404H115.1C115.2 63.9404 115.2 63.9404 115.2 64.0404L115.3 64.1404V64.4404C115.3 64.5404 115.3 64.5404 115.2 64.5404C115.1 64.5404 115.1 64.6404 115.1 64.6404H114V66.9404C114 67.2404 114 67.4404 114.1 67.6404C114.2 67.8404 114.4 67.8404 114.6 67.8404H115.1C115.2 67.8404 115.2 67.8404 115.2 67.9404L115.3 68.0404V68.3404C115.3 68.4404 115.3 68.4404 115.2 68.4404L115.1 68.5404H114.5C113.6 68.4404 113.2 67.9404 113.2 66.9404Z" fill="#ffffff"/>
<path d="M116.6 68.0404C116.3 67.6404 116.1 67.2404 116.1 66.6404V64.1404C116.1 64.0404 116.1 64.0404 116.2 64.0404L116.3 63.9404H116.7C116.8 63.9404 116.8 63.9404 116.8 64.0404L116.9 64.1404V66.5404C116.9 67.4404 117.3 67.8404 118.1 67.8404C118.5 67.8404 118.8 67.7404 119 67.4404C119.2 67.1404 119.3 66.8404 119.3 66.4404V64.0404C119.3 63.9404 119.3 63.9404 119.4 63.9404L119.5 63.8404H119.9C120 63.8404 120 63.8404 120 63.9404L120.1 64.0404V68.1404C120.1 68.2404 120.1 68.2404 120 68.2404C119.9 68.2404 119.9 68.3404 119.9 68.3404H119.5C119.4 68.3404 119.4 68.3404 119.4 68.2404C119.4 68.1404 119.3 68.1404 119.3 68.1404V67.7404C119.1 67.9404 118.9 68.1404 118.7 68.2404C118.5 68.3404 118.2 68.4404 117.8 68.4404C117.3 68.5404 116.9 68.3404 116.6 68.0404Z" fill="#ffffff"/>
<path d="M121.8 66.9404V64.6404H121.1C121 64.6404 121 64.6404 121 64.5404L120.9 64.4404V64.1404C120.9 64.0404 120.9 64.0404 121 64.0404L121.1 63.9404H121.8V62.4404C121.8 62.3404 121.8 62.3404 121.9 62.3404C122 62.3404 122 62.2404 122 62.2404H122.4C122.5 62.2404 122.5 62.2404 122.5 62.3404C122.5 62.4404 122.6 62.4404 122.6 62.4404V63.9404H123.7C123.8 63.9404 123.8 63.9404 123.8 64.0404L123.9 64.1404V64.4404C123.9 64.5404 123.9 64.5404 123.8 64.5404C123.7 64.5404 123.7 64.6404 123.7 64.6404H122.6V66.9404C122.6 67.2404 122.6 67.4404 122.7 67.6404C122.8 67.8404 123 67.8404 123.2 67.8404H123.7C123.8 67.8404 123.8 67.8404 123.8 67.9404L123.9 68.0404V68.3404C123.9 68.4404 123.9 68.4404 123.8 68.4404L123.7 68.5404H123.1C122.3 68.4404 121.8 67.9404 121.8 66.9404Z" fill="#ffffff"/>
<path d="M124.8 62.9404L124.7 62.8404V62.3404C124.7 62.2404 124.7 62.2404 124.8 62.2404L124.9 62.1404H125.4C125.5 62.1404 125.5 62.1404 125.5 62.2404L125.6 62.3404V62.8404C125.6 62.9404 125.6 62.9404 125.5 62.9404C125.4 62.9404 125.4 63.0404 125.4 63.0404H125C124.9 63.0404 124.8 63.0404 124.8 62.9404ZM124.9 68.4404L124.8 68.3404V64.2404C124.8 64.1404 124.8 64.1404 124.9 64.1404L125 64.0404H125.4C125.5 64.0404 125.5 64.0404 125.5 64.1404L125.6 64.2404V68.3404C125.6 68.4404 125.6 68.4404 125.5 68.4404C125.4 68.4404 125.4 68.5404 125.4 68.5404H125C125 68.4404 124.9 68.4404 124.9 68.4404Z" fill="#ffffff"/>
<path d="M127.3 68.0404C127 67.6404 126.8 67.2404 126.7 66.6404V65.8404C126.7 65.2404 126.9 64.7404 127.3 64.4404C127.7 64.0404 128.1 63.9404 128.8 63.9404C129.4 63.9404 129.9 64.1404 130.3 64.4404C130.7 64.8404 130.8 65.2404 130.9 65.8404C130.9 65.9404 130.9 66.1404 130.9 66.2404C130.9 66.3404 130.9 66.4404 130.9 66.6404C130.9 67.2404 130.7 67.7404 130.3 68.0404C130 68.4404 129.5 68.5404 128.8 68.5404C128.1 68.5404 127.6 68.3404 127.3 68.0404ZM129.7 67.5404C129.9 67.3404 130 66.9404 130.1 66.5404C130.1 66.4404 130.1 66.3404 130.1 66.2404C130.1 66.0404 130.1 65.9404 130.1 65.9404C130.1 65.5404 130 65.1404 129.7 64.9404C129.5 64.7404 129.2 64.5404 128.8 64.5404C128.4 64.5404 128.1 64.6404 127.9 64.9404C127.7 65.1404 127.6 65.5404 127.5 65.9404V66.5404C127.5 66.9404 127.6 67.3404 127.9 67.5404C128.1 67.7404 128.4 67.9404 128.8 67.9404C129.1 67.8404 129.4 67.7404 129.7 67.5404Z" fill="#ffffff"/>
<path d="M132 68.4404L131.9 68.3404V64.2404C131.9 64.1404 131.9 64.1404 132 64.1404L132.1 64.0404H132.5C132.6 64.0404 132.6 64.0404 132.6 64.1404L132.7 64.2404V64.6404C132.9 64.4404 133.1 64.2404 133.3 64.1404C133.5 64.0404 133.8 63.9404 134.2 63.9404C134.8 63.9404 135.2 64.1404 135.5 64.4404C135.8 64.8404 136 65.2404 136 65.8404V68.3404C136 68.4404 136 68.4404 135.9 68.4404L135.8 68.5404H135.4C135.3 68.5404 135.3 68.5404 135.3 68.4404L135.2 68.3404V65.9404C135.2 65.5404 135.1 65.2404 134.9 64.9404C134.7 64.7404 134.4 64.5404 134 64.5404C133.6 64.5404 133.3 64.6404 133.1 64.9404C132.9 65.1404 132.8 65.5404 132.8 65.9404V68.3404C132.8 68.4404 132.8 68.4404 132.7 68.4404L132.6 68.5404H132.2C132.1 68.4404 132 68.4404 132 68.4404Z" fill="#ffffff"/>
<path d="M137.7 68.3404C137.4 68.2404 137.2 68.0404 137.1 67.8404C137 67.6404 136.9 67.5404 136.9 67.4404C136.9 67.3404 136.9 67.3404 137 67.3404H137.6C137.6 67.3404 137.6 67.3404 137.7 67.4404C137.8 67.6404 138 67.7404 138.2 67.8404C138.4 67.9404 138.6 67.9404 138.9 67.9404C139.2 67.9404 139.5 67.8404 139.7 67.7404C139.9 67.6404 140 67.4404 140 67.2404C140 67.1404 140 66.9404 139.9 66.8404C139.8 66.7404 139.7 66.6404 139.5 66.6404C139.3 66.5404 139 66.5404 138.7 66.4404C138.2 66.3404 137.8 66.1404 137.6 65.9404C137.4 65.7404 137.3 65.4404 137.3 65.1404C137.3 64.9404 137.4 64.7404 137.5 64.5404C137.6 64.3404 137.8 64.1404 138.1 64.0404C138.4 63.9404 138.7 63.8404 139 63.8404C139.4 63.8404 139.7 63.9404 139.9 64.0404C140.2 64.1404 140.4 64.3404 140.5 64.4404C140.6 64.6404 140.7 64.7404 140.7 64.8404C140.7 64.9404 140.7 64.9404 140.6 64.9404L140.5 65.0404H140.2C140.1 65.0404 140.1 65.0404 140 64.9404C139.9 64.8404 139.8 64.7404 139.8 64.6404C139.7 64.5404 139.6 64.5404 139.5 64.4404C139.4 64.4404 139.2 64.3404 139 64.3404C138.7 64.3404 138.5 64.4404 138.3 64.5404C138.1 64.6404 138.1 64.8404 138.1 65.0404C138.1 65.1404 138.1 65.2404 138.2 65.3404C138.3 65.4404 138.4 65.5404 138.6 65.5404C138.8 65.6404 139 65.6404 139.4 65.7404C140 65.8404 140.3 66.0404 140.6 66.2404C140.8 66.4404 140.9 66.7404 140.9 67.0404C140.9 67.3404 140.8 67.5404 140.7 67.7404C140.6 67.9404 140.3 68.1404 140.1 68.2404C139.8 68.3404 139.5 68.4404 139.1 68.4404C138.4 68.5404 138 68.4404 137.7 68.3404Z" fill="#ffffff"/>
<path d="M144 68.4404L143.9 68.3404V62.6404C143.9 62.5404 143.9 62.5404 144 62.4404L144.1 62.3404H144.5C144.6 62.3404 144.6 62.3404 144.6 62.3404L144.7 62.4404L147.6 66.9404V62.5404C147.6 62.4404 147.6 62.4404 147.7 62.3404L147.8 62.2404H148.2C148.3 62.2404 148.3 62.2404 148.4 62.3404C148.4 62.3404 148.5 62.4404 148.5 62.5404V68.2404C148.5 68.3404 148.5 68.3404 148.4 68.3404L148.3 68.4404H147.9C147.8 68.4404 147.7 68.4404 147.7 68.3404L144.8 63.8404V68.2404C144.8 68.3404 144.8 68.3404 144.7 68.3404L144.6 68.4404H144.2C144 68.4404 144 68.4404 144 68.4404Z" fill="#ffffff"/>
<path d="M150.2 67.9404C149.8 67.5404 149.6 67.0404 149.6 66.4404V65.8404C149.6 65.2404 149.8 64.7404 150.2 64.3404C150.6 63.9404 151 63.7404 151.6 63.7404C152.2 63.7404 152.7 63.9404 153.1 64.3404C153.5 64.7404 153.6 65.3404 153.6 66.0404V66.2404C153.6 66.3404 153.6 66.3404 153.5 66.3404L153.4 66.4404H150.4V66.5404C150.4 66.9404 150.5 67.2404 150.7 67.5404C150.9 67.8404 151.2 67.9404 151.6 67.9404C151.9 67.9404 152.1 67.8404 152.3 67.7404C152.5 67.6404 152.6 67.5404 152.7 67.4404C152.8 67.3404 152.8 67.3404 152.8 67.3404H153.3C153.4 67.3404 153.4 67.3404 153.4 67.3404L153.5 67.4404C153.5 67.5404 153.4 67.7404 153.3 67.9404C153.1 68.1404 152.9 68.2404 152.6 68.4404C152.3 68.5404 152 68.6404 151.6 68.6404C151.1 68.5404 150.6 68.3404 150.2 67.9404ZM152.9 65.8404C152.9 65.4404 152.8 65.0404 152.6 64.8404C152.4 64.5404 152.1 64.4404 151.7 64.4404C151.3 64.4404 151 64.5404 150.8 64.8404C150.6 65.1404 150.5 65.4404 150.5 65.8404H152.9Z" fill="#ffffff"/>
<path d="M155.1 66.9404V64.6404H154.4C154.3 64.6404 154.3 64.6404 154.3 64.5404L154.2 64.4404V64.1404C154.2 64.0404 154.2 64.0404 154.3 64.0404L154.4 63.9404H155.1V62.4404C155.1 62.3404 155.1 62.3404 155.2 62.3404C155.3 62.3404 155.3 62.2404 155.3 62.2404H155.7C155.8 62.2404 155.8 62.2404 155.8 62.3404L155.9 62.4404V63.9404H157C157.1 63.9404 157.1 63.9404 157.1 64.0404L157.2 64.1404V64.4404C157.2 64.5404 157.2 64.5404 157.1 64.5404L157 64.6404H155.9V66.9404C155.9 67.2404 155.9 67.4404 156 67.6404C156.1 67.8404 156.3 67.8404 156.5 67.8404H157C157.1 67.8404 157.1 67.8404 157.1 67.9404L157.2 68.0404V68.3404C157.2 68.4404 157.2 68.4404 157.1 68.4404L157 68.5404H156.4C155.6 68.4404 155.1 67.9404 155.1 66.9404Z" fill="#ffffff"/>
<path d="M159.1 68.4404C159.1 68.4404 159 68.3404 159 68.2404L157.8 64.1404V64.0404C157.8 63.9404 157.8 63.9404 157.9 63.9404L158 63.8404H158.4C158.5 63.8404 158.5 63.8404 158.5 63.8404L158.6 63.9404L159.6 67.2404L160.6 63.9404C160.6 63.9404 160.6 63.8404 160.7 63.8404C160.7 63.8404 160.8 63.7404 160.9 63.7404H161.2C161.3 63.7404 161.3 63.7404 161.4 63.8404L161.5 63.9404L162.5 67.2404L163.5 63.9404C163.5 63.9404 163.5 63.8404 163.6 63.8404H164.1C164.2 63.8404 164.2 63.8404 164.2 63.9404L164.3 64.0404V64.1404L163.1 68.2404C163.1 68.3404 163 68.3404 163 68.4404C163 68.5404 162.9 68.5404 162.8 68.5404H162.5C162.3 68.5404 162.2 68.4404 162.2 68.3404L161.2 65.1404L160.2 68.3404C160.2 68.4404 160.1 68.5404 159.9 68.5404H159.6C159.2 68.4404 159.2 68.4404 159.1 68.4404Z" fill="#ffffff"/>
<path d="M165.4 68.0404C165.1 67.6404 164.9 67.2404 164.8 66.6404V65.8404C164.8 65.2404 165 64.7404 165.4 64.4404C165.8 64.0404 166.2 63.9404 166.9 63.9404C167.5 63.9404 168 64.1404 168.4 64.4404C168.8 64.8404 168.9 65.2404 169 65.8404C169 65.9404 169 66.1404 169 66.2404C169 66.3404 169 66.4404 169 66.6404C169 67.2404 168.8 67.7404 168.4 68.0404C168.1 68.4404 167.6 68.5404 166.9 68.5404C166.2 68.5404 165.7 68.3404 165.4 68.0404ZM167.7 67.5404C167.9 67.3404 168 66.9404 168.1 66.5404C168.1 66.4404 168.1 66.3404 168.1 66.2404C168.1 66.0404 168.1 65.9404 168.1 65.9404C168.1 65.5404 168 65.1404 167.7 64.9404C167.5 64.7404 167.2 64.5404 166.8 64.5404C166.4 64.5404 166.1 64.6404 165.9 64.9404C165.7 65.1404 165.6 65.5404 165.5 65.9404V66.5404C165.5 66.9404 165.6 67.3404 165.9 67.5404C166.1 67.7404 166.4 67.9404 166.8 67.9404C167.2 67.8404 167.5 67.7404 167.7 67.5404Z" fill="#ffffff"/>
<path d="M170 68.4404L169.9 68.3404V64.2404C169.9 64.1404 169.9 64.1404 170 64.1404L170.1 64.0404H170.5C170.6 64.0404 170.6 64.0404 170.7 64.1404C170.7 64.1404 170.8 64.2404 170.8 64.3404V64.7404C171 64.3404 171.4 64.1404 172 64.1404H172.3C172.4 64.1404 172.4 64.1404 172.4 64.2404L172.5 64.3404V64.6404C172.5 64.7404 172.5 64.7404 172.4 64.7404L172.3 64.8404H171.8C171.5 64.8404 171.2 64.9404 171 65.1404C170.8 65.3404 170.7 65.5404 170.7 65.9404V68.5404C170.7 68.6404 170.7 68.6404 170.6 68.6404L170.5 68.7404H170.1C170.1 68.4404 170.1 68.4404 170 68.4404Z" fill="#ffffff"/>
<path d="M173.3 68.4404L173.2 68.3404V62.5404C173.2 62.4404 173.2 62.4404 173.3 62.4404L173.4 62.3404H173.8C173.9 62.3404 173.9 62.3404 173.9 62.4404L174 62.5404V65.6404L175.7 64.2404C175.9 63.9404 176 63.9404 176 63.9404C176 63.9404 176.1 63.9404 176.2 63.9404H176.6C176.7 63.9404 176.7 63.9404 176.7 63.9404V64.0404C176.7 64.1404 176.7 64.1404 176.6 64.2404L174.6 65.9404L176.9 68.1404C177 68.2404 177 68.2404 177 68.3404C177 68.4404 177 68.4404 177 68.4404L176.9 68.5404H176.5C176.4 68.5404 176.4 68.5404 176.3 68.5404C176.3 68.5404 176.2 68.4404 176.1 68.4404L174.1 66.5404V68.3404C174.1 68.4404 174.1 68.4404 174 68.4404L173.9 68.5404H173.5C173.4 68.4404 173.4 68.4404 173.3 68.4404Z" fill="#ffffff"/>
</svg>
