<svg width="116" height="129" viewBox="0 0 116 129" fill="none" xmlns="http://www.w3.org/2000/svg">
<g clip-path="url(#clip0)">
<path d="M99.6 44.3C91.1 44.3 84.1 37.3 84.1 28.8C84.1 20.3 91.1 13.3 99.6 13.3C108.1 13.3 115.1 20.3 115.1 28.8C115.1 37.3 108.1 44.3 99.6 44.3ZM99.6 17.7C93.5 17.7 88.5 22.7 88.5 28.8C88.5 34.9 93.5 39.9 99.6 39.9C105.7 39.9 110.7 34.9 110.7 28.8C110.7 22.7 105.7 17.7 99.6 17.7Z" fill="#F9FAFD"/>
<path d="M65.6999 31C57.1999 31 50.2 24 50.2 15.5C50.2 7 57.0999 0 65.6999 0C74.2999 0 81.1999 7 81.1999 15.5C81.1999 24 74.1999 31 65.6999 31ZM65.6999 4.4C59.5999 4.4 54.5999 9.4 54.5999 15.5C54.5999 21.6 59.5999 26.6 65.6999 26.6C71.7999 26.6 76.8 21.6 76.8 15.5C76.8 9.4 71.7999 4.4 65.6999 4.4Z" fill="#F9FAFD"/>
<path d="M65.6999 80.4C57.1999 80.4 50.2 73.4 50.2 64.9C50.2 56.4 57.1999 49.4 65.6999 49.4C74.1999 49.4 81.1999 56.4 81.1999 64.9C81.1999 73.4 74.1999 80.4 65.6999 80.4ZM65.6999 53.9C59.5999 53.9 54.5999 58.9 54.5999 65C54.5999 71.1 59.5999 76 65.6999 76C71.7999 76 76.8 71 76.8 64.9C76.8 58.8 71.7999 53.9 65.6999 53.9Z" fill="#F9FAFD"/>
<path d="M15.5 80.4C7 80.4 0 73.5 0 64.9C0 56.3 7 49.4 15.5 49.4C24 49.4 31 56.4 31 64.9C31 73.4 24 80.4 15.5 80.4ZM15.5 53.9C9.4 53.9 4.4 58.9 4.4 65C4.4 71.1 9.4 76 15.5 76C21.6 76 26.6 71 26.6 64.9C26.6 58.8 21.6 53.9 15.5 53.9Z" fill="#F9FAFD"/>
<path d="M30.3 44.3C21.8 44.3 14.8 37.3 14.8 28.8C14.8 20.3 21.8 13.3 30.3 13.3C38.8 13.3 45.8 20.3 45.8 28.8C45.8 37.3 38.8 44.3 30.3 44.3ZM30.3 17.7C24.2 17.7 19.2 22.7 19.2 28.8C19.2 34.9 24.2 39.9 30.3 39.9C36.4 39.9 41.4001 34.9 41.4001 28.8C41.4001 22.7 36.4 17.7 30.3 17.7Z" fill="#F9FAFD"/>
<path d="M99.6 115.1C91.1 115.1 84.1 108.1 84.1 99.6C84.1 91.1 91.1 84.1 99.6 84.1C108.1 84.1 115.1 91.1 115.1 99.6C115.1 108.1 108.1 115.1 99.6 115.1ZM99.6 88.5C93.5 88.5 88.5 93.5 88.5 99.6C88.5 105.7 93.5 110.7 99.6 110.7C105.7 110.7 110.7 105.7 110.7 99.6C110.7 93.5 105.7 88.5 99.6 88.5Z" fill="#F9FAFD"/>
<path d="M65.6999 128.4C57.1999 128.4 50.2 121.4 50.2 112.9C50.2 104.4 57.1999 97.4 65.6999 97.4C74.1999 97.4 81.1999 104.4 81.1999 112.9C81.1999 121.4 74.1999 128.4 65.6999 128.4ZM65.6999 101.8C59.5999 101.8 54.5999 106.8 54.5999 112.9C54.5999 119 59.5999 124 65.6999 124C71.7999 124 76.8 119 76.8 112.9C76.8 106.8 71.7999 101.8 65.6999 101.8Z" fill="#F9FAFD"/>
<path d="M30.3 115.1C21.8 115.1 14.8 108.1 14.8 99.6C14.8 91.1 21.8 84.1 30.3 84.1C38.8 84.1 45.8 91.1 45.8 99.6C45.8 108.1 38.8 115.1 30.3 115.1ZM30.3 88.5C24.2 88.5 19.2 93.5 19.2 99.6C19.2 105.7 24.2 110.7 30.3 110.7C36.4 110.7 41.4001 105.7 41.4001 99.6C41.3001 93.5 36.4 88.5 30.3 88.5Z" fill="#F9FAFD"/>
<path d="M35.7 67.1H23.6C22.4 67.1 21.4 66.1 21.4 64.9C21.4 63.7 22.4 62.7 23.6 62.7H35.7C36.9 62.7 37.9 63.7 37.9 64.9C37.9 66.1 36.9 67.1 35.7 67.1Z" fill="#F9FAFD"/>
<path d="M60.5 67.1H46.5C45.3 67.1 44.3 66.1 44.3 64.9C44.3 63.7 45.3 62.7 46.5 62.7H60.5C61.7001 62.7 62.7001 63.7 62.7001 64.9C62.7001 66.1 61.7001 67.1 60.5 67.1Z" fill="#F9FAFD"/>
<path d="M94.4001 27.1C93.9001 27.1 93.5 27 93.1 26.7C86.7001 22 79.3001 19 71.5001 18.1C70.3001 17.9 69.4 16.8 69.6 15.6C69.8 14.4 70.9 13.5 72.1 13.7C80.6 14.8 88.7 18 95.7 23.1C96.7 23.8 96.9 25.2 96.2 26.2C95.7 26.8 95.0001 27.1 94.4001 27.1Z" fill="#F9FAFD"/>
<path d="M36.7 27.2C36 27.2 35.4 26.9 34.9 26.3C34.2 25.3 34.4 23.9 35.4 23.2C42.2 18.2 50.2 14.9 58.6 13.7C59.8 13.5 60.9 14.4 61.1 15.6C61.3 16.8 60.4 17.9 59.2 18.1C51.5 19.2 44.2 22.2 38 26.7C37.7 27.1 37.2 27.2 36.7 27.2Z" fill="#F9FAFD"/>
<path d="M17.6 58.8C17.5 58.8 17.4 58.8 17.3 58.8C16.1 58.6 15.3 57.5 15.5 56.3C16.7 48.4 19.9 40.8 24.6 34.3C25.3 33.3 26.7 33.1 27.7 33.8C28.7 34.5 28.9 35.9 28.2 36.9C23.9 42.8 21 49.8 19.9 57C19.6 58.1 18.6 58.8 17.6 58.8Z" fill="#F9FAFD"/>
<path d="M71.8001 114.9C70.7001 114.9 69.7 114.1 69.6 113C69.4 111.8 70.3001 110.7 71.5001 110.5C79.2001 109.5 86.7001 106.6 93.0001 101.9C94.0001 101.2 95.4 101.4 96.1 102.4C96.8001 103.4 96.6 104.8 95.6 105.5C88.7001 110.6 80.5001 113.8 72.0001 114.9C72.0001 114.9 71.9001 114.9 71.8001 114.9Z" fill="#F9FAFD"/>
<path d="M58.9 114.8C58.8 114.8 58.7 114.8 58.6 114.8C50.2 113.6 42.2 110.4 35.4 105.3C34.4 104.6 34.2 103.2 34.9 102.2C35.6 101.2 37 101 38 101.7C44.2 106.3 51.5 109.3 59.2 110.3C60.4 110.5 61.3 111.6 61.1 112.8C60.9 114 60 114.8 58.9 114.8Z" fill="#F9FAFD"/>
<path d="M26.3 95.2C25.6 95.2 24.9 94.9 24.5 94.3C19.8 87.8 16.6 80.2 15.4 72.3C15.2 71.1 16 70 17.2 69.8C18.4 69.6 19.5 70.4 19.7 71.6C20.8 78.8 23.7 85.8 28 91.7C28.7 92.7 28.5 94.1 27.5 94.8C27.2 95.1 26.7 95.2 26.3 95.2Z" fill="#F9FAFD"/>
</g>
<defs>
<clipPath id="clip0">
<rect width="115.1" height="128.4" fill="#F9FAFD"/>
</clipPath>
</defs>
</svg>
